<svg xmlns="http://www.w3.org/2000/svg" fill="none" viewBox="0 0 339 194"><path fill="#323649" stroke="#BA8C4E" stroke-width="2" d="M107.087 193 1.69 1h335.637l-103.19 192h-127.05Z"/><path stroke="#BA8C4E" stroke-width="2" d="M188.166 41.096v97.136M152.997 41.096v97.136M170.581 30.211v118.903M137.762 119.645h65.313M146.973 57.681h46.891M123.527 86.988h92.109M215.798 79.615v8.373M214.798 78.615h13.398"/><circle cx="229.033" cy="78.777" r="2.512" fill="#BA8C4E"/><circle cx="170.419" cy="31.886" r="2.512" fill="#BA8C4E"/><circle cx="128.551" cy="41.096" r="2.512" fill="#BA8C4E"/><circle cx="138.599" cy="31.886" r="2.512" fill="#BA8C4E"/><circle cx="202.238" cy="31.886" r="2.512" fill="#BA8C4E"/><circle cx="177.117" cy="62.867" r="2.512" fill="#BA8C4E"/><circle cx="163.72" cy="62.867" r="2.512" fill="#BA8C4E"/><circle cx="157.858" cy="72.078" r="2.512" fill="#BA8C4E"/><circle cx="182.979" cy="72.078" r="2.512" fill="#BA8C4E"/><circle cx="159.533" cy="77.102" r="2.512" fill="#BA8C4E"/><circle cx="180.467" cy="77.102" r="2.512" fill="#BA8C4E"/><circle cx="180.467" cy="98.036" r="2.512" fill="#BA8C4E"/><circle cx="159.533" cy="98.036" r="2.512" fill="#BA8C4E"/><circle cx="157.858" cy="107.247" r="2.512" fill="#BA8C4E"/><circle cx="182.979" cy="107.247" r="2.512" fill="#BA8C4E"/><circle cx="163.72" cy="114.783" r="2.512" fill="#BA8C4E"/><circle cx="177.117" cy="114.783" r="2.512" fill="#BA8C4E"/><path stroke="#BA8C4E" stroke-width="2" d="M124.202 94.687v-8.374M125.202 94.849h-13.398"/><circle cx="110.967" cy="94.687" r="2.512" fill="#BA8C4E" transform="rotate(-180 110.967 94.687)"/><circle cx="193.027" cy="100.548" r="2.512" fill="#BA8C4E" transform="rotate(-180 193.027 100.548)"/><circle cx="147.81" cy="100.548" r="2.512" fill="#BA8C4E" transform="rotate(-180 147.81 100.548)"/><path stroke="#BA8C4E" stroke-width="2" d="M129.389 40.934h24.283"/><circle r="2.512" fill="#BA8C4E" transform="matrix(-1 0 0 1 212.286 40.26)"/><path stroke="#BA8C4E" stroke-width="2" d="M211.449 40.096h-24.283M188.84 137.229h7.536"/><circle r="2.512" fill="#BA8C4E" transform="matrix(-1 0 0 1 144.461 137.392)"/><circle r="2.512" fill="#BA8C4E" transform="matrix(-1 0 0 1 196.377 137.392)"/><circle r="2.512" fill="#BA8C4E" transform="matrix(-1 0 0 1 170.419 149.114)"/><path stroke="#BA8C4E" stroke-width="2" d="M152.834 137.229h-7.536M147.973 58.681v41.03M193.19 58.681v41.03M202.075 120.645V31.048M138.437 120.645V31.886M164.557 62.705h11.723M158.696 71.916h23.446M158.696 71.916h23.446M158.696 107.084h23.446M164.557 114.62h11.723M159.403 76.395l22.608 22.609M180.597 76.395l-22.608 22.609"/><path stroke="#BA8C4E" d="M105.605 26.524h128.789v127.952H105.605z"/><path stroke="#BA8C4E" d="M103.093 24.012h133.813v132.976H103.093z"/><path stroke="#BA8C4E" d="M100.581 21.5h138.837v138H100.581z"/></svg>
