<svg width="60" height="59" viewBox="0 0 60 59" fill="none" xmlns="http://www.w3.org/2000/svg">
<line x1="48.5" y1="10" x2="48.5" y2="52" stroke="#BA8C4E"/>
<line x1="49" y1="10.5" x2="7" y2="10.5" stroke="#BA8C4E"/>
<line x1="48.5" y1="10" x2="48.5" y2="57" stroke="#BA8C4E"/>
<line x1="49" y1="10.5" x2="2" y2="10.5" stroke="#BA8C4E"/>
<path d="M48.5282 31.9346C47.1125 33.2969 45.4423 34.367 43.613 35.0839C41.7838 35.8008 39.8312 36.1503 37.8669 36.1126C35.9025 36.0748 33.9648 35.6505 32.1644 34.8639C30.364 34.0774 28.7362 32.9439 27.3739 31.5282C26.0116 30.1125 24.9414 28.4423 24.2246 26.613C23.5077 24.7838 23.1582 22.8312 23.1959 20.8669C23.2337 18.9025 23.6579 16.9648 24.4445 15.1644C25.2311 13.3641 26.3646 11.7362 27.7803 10.3739L28.1061 10.7124C26.7348 12.032 25.6369 13.6087 24.875 15.3525C24.1131 17.0964 23.7022 18.9732 23.6656 20.8759C23.6291 22.7786 23.9676 24.6698 24.662 26.4416C25.3563 28.2135 26.3929 29.8312 27.7124 31.2024C29.032 32.5737 30.6087 33.6716 32.3525 34.4335C34.0964 35.1953 35.9732 35.6063 37.8759 35.6429C39.7786 35.6794 41.6698 35.3409 43.4416 34.6465C45.2134 33.9522 46.8312 32.9156 48.2024 31.5961L48.5282 31.9346Z" fill="#BA8C4E"/>
<circle cx="48.5" cy="57.5" r="1.5" fill="#BA8C4E"/>
<circle cx="1.5" cy="10.5" r="1.5" fill="#BA8C4E"/>
<circle cx="15.5" cy="43.5" r="1.5" fill="#BA8C4E"/>
<rect x="43.5" y="12.5" width="3" height="40" stroke="#BA8C4E"/>
<rect x="6.5" y="15.5" width="3" height="40" transform="rotate(-90 6.5 15.5)" stroke="#BA8C4E"/>
<line x1="48.3536" y1="10.3536" x2="15.3536" y2="43.3536" stroke="#BA8C4E"/>
</svg>
