<svg width="68" height="92" viewBox="0 0 68 92" fill="none" xmlns="http://www.w3.org/2000/svg">
<path d="M38.7028 21.5032V71.6397M29.969 21.5032V71.6397M33.1202 44.0946H34.5279C46.2863 44.0946 55.8183 34.4923 55.8183 22.6473C55.8183 10.8023 46.2863 1.20001 34.5279 1.20001H33.1202C21.3618 1.20001 11.8298 10.8023 11.8298 22.6473C11.8298 34.4923 21.3618 44.0946 33.1202 44.0946ZM33.4721 37.3591H34.5279C42.5935 37.3591 49.1321 30.7724 49.1321 22.6473C49.1321 14.5222 42.5935 7.93552 34.5278 7.93552H33.4721C25.4064 7.93552 18.8679 14.5222 18.8679 22.6473C18.8679 30.7724 25.4065 37.3591 33.4721 37.3591ZM34 33.1051L66 90.8H2L34 33.1051ZM34 44.0946L56.8571 85.3053H11.1429L34 44.0946ZM34 53.6661L48.9333 80.5195H19.0667L34 53.6661Z" stroke="#BA8C4E" stroke-width="2"/>
</svg>
