<svg xmlns="http://www.w3.org/2000/svg" fill="none" viewBox="0 0 170 25"><path stroke="#BA8C4E" d="M130.5 17.5h-101v-10h101zM29 9.5h-7M22.5 9V4M23 4.5h101M123.5 4v4M29 15.5h-7M22.5 16v5M23 20.5h101M123.5 21v-4M12 12.5h18"/><circle r="1.5" fill="#BA8C4E" transform="matrix(1 0 0 -1 11.5 12.5)"/><path stroke="#BA8C4E" d="M131 12.5h37M32.5 14.5h95v-4h-95z"/><circle r="1.5" fill="#BA8C4E" transform="matrix(1 0 0 -1 168.5 12.5)"/><path stroke="#BA8C4E" d="M83 12.5h37M6 22.4l15.088-9.9L6 2.6v19.8Z"/><path stroke="#BA8C4E" d="m6 22.4 15.088-9.9L6 2.6v19.8Z"/></svg>
