<svg xmlns="http://www.w3.org/2000/svg" width="1524" height="1045" fill="none"><g filter="url(#a)"><path fill="#323649" d="M9.2 0h1510.1L1009 1037H502.6L9.2 0Z"/><path stroke="#BA8C4E" stroke-width="3" d="M503.5 1035.5 11.6 1.5H1517l-509 1034H503.6Z"/></g><path fill="#BA8C4E" d="m940.8 596.3-.6-1.9-.8.3-.4.7 1.8 1Zm72.8-25.3.6 2 .8-.3.4-.8-1.8-.9Zm45.7-94.3 1.8.8.4-.7-.3-.8-1.9.7Zm-25.3-72.8-1.8-.9-.3.8.3.8 1.8-.7Zm63.3-130.5a10.7 10.7 0 1 0 9.3-19.2 10.7 10.7 0 0 0-9.3 19.2Zm-233 485.4 78.3-161.6-3.6-1.8L860.7 757l3.6 1.8Zm77.2-160.6 72.7-25.3-1.3-3.7-72.7 25.2 1.3 3.8Zm73.9-26.3 45.7-94.4-3.6-1.7-45.7 94.4 3.6 1.7Zm45.8-95.9-25.3-72.7-3.7 1.3 25.2 72.7 3.8-1.3Zm-25.4-71.2 68-140.1-3.7-1.7-67.8 140 3.5 1.8Z"/><path fill="#BA8C4E" d="m864.3 823.4 2-.7.2.8-.4.8-1.8-.9Zm-25.2-72.8-2 .7-.2-.8.4-.7 1.8.8Zm45.7-94.3-1.8-1 .4-.7.7-.2.7 1.9Zm72.8-25.3 1.8.9-.4.7-.8.3-.6-2Zm63.2-130.5a10.7 10.7 0 1 1 9.3-19.2 10.7 10.7 0 0 1-9.3 19.2ZM784.2 984.1l78.3-161.6 3.6 1.8-78.3 161.6-3.6-1.8Zm78.2-160-25.2-72.8 3.8-1.3 25.2 72.7-3.8 1.4Zm-25.1-74.3 45.7-94.4 3.6 1.7-45.7 94.4-3.6-1.7Zm46.8-95.4L957 629l1.3 3.8-72.8 25.2-1.3-3.7Zm71.7-24.3 67.8-140 3.6 1.7-67.8 140-3.6-1.7Z"/><path fill="#BA8C4E" d="m955 673.5 2-.2v.6l-.3.5-1.8-.9Zm-13-98.2-2 .3v-.6l.2-.6 1.8.9Zm69.5-143.5-1.8-.8.3-.6.5-.3 1 1.7Zm85.1-50.7 1.8.8-.2.6-.5.3-1-1.7Zm98.6-203.4a10.7 10.7 0 1 1 9.3-19.2 10.7 10.7 0 0 1-9.3 19.2ZM834 918.3l119-245.6 3.6 1.7-119 245.7-3.6-1.8Zm118.8-244.5L940 575.6l4-.6 13 98.3-4 .5Zm-12.7-99.4 69.5-143.4 3.6 1.7-69.5 143.5-3.6-1.8Zm70.3-144.3 85.1-50.7 2 3.4-85 50.7-2.1-3.4Zm84.3-49.9 103.2-213 3.6 1.8-103.2 213-3.6-1.8Z"/><path fill="#BA8C4E" fill-opacity=".5" d="m994.8 502.6.4-.2.1.2v.2l-.5-.2Zm-20.3-58.4-.5.1v-.4l.5.3Zm36.7-75.9-.4-.2v-.2h.3l.1.4Zm58.5-20.3.4.3v.1l-.3.1-.1-.5Zm53.3-110a2.7 2.7 0 1 1 2.4-4.8 2.7 2.7 0 0 1-2.4 4.8ZM931.4 632.2l63-129.8.8.4-62.9 129.9-.9-.5Zm62.9-129.4L974 444.3l1-.3 20.2 58.4-.9.4ZM974 443.9l36.8-75.8.9.5-36.8 75.8-.9-.5Zm37-76 58.5-20.3.3 1-58.4 20.2-.3-1Zm58.2-20 54.6-112.6.9.4-54.6 112.6-.9-.5Z"/><path fill="#BA8C4E" fill-opacity=".5" d="m889.7 664-.2-.6-.2.1v.2l.4.2Zm58.4-20.4.2.5h.2v-.3l-.4-.2Zm36.8-75.8.4.2.1-.2v-.2l-.5.2Zm-20.3-58.5-.5-.2v.4l.5-.2Zm53.4-110.1a2.7 2.7 0 1 0 2.3-4.8 2.7 2.7 0 0 0-2.3 4.8ZM827.2 794l63-129.9-1-.4-62.9 129.8 1 .5Zm62.6-129.6 58.5-20.3-.3-1-58.5 20.3.3 1Zm58.8-20.6 36.7-75.8-.9-.4-36.7 75.8.9.4Zm36.7-76.2-20.2-58.4-1 .3 20.3 58.5 1-.4Zm-20.3-58 54.6-112.6-1-.4L964.2 509l1 .5Z"/><path fill="#BA8C4E" fill-opacity=".5" d="m939 532.2-.2-.4h-.1l-.1.2.5.2Zm68.4-40.8.3.4h.1v-.2l-.4-.2Zm55.9-115.3.4.3.1-.2v-.1h-.5Zm-10.4-78.9-.4-.2-.1.1v.2h.5Zm81.7-168.7a2.7 2.7 0 1 0 2.4-4.8 2.7 2.7 0 0 0-2.4 4.8ZM844 729.8l95.6-197.4-.9-.4L843 729.3l.9.5Zm95.4-197.2 68.4-40.8-.5-.8-68.4 40.8.5.8Zm68.6-41 55.8-115.2-.9-.5-55.8 115.3.9.4Zm55.9-115.5-10.4-79-1 .2 10.4 79 1-.2Zm-10.4-78.7 82.8-171-.9-.5-82.8 171 .9.5ZM1005 507.5l-.2-.4h-.2v.2l.4.2Zm58.4-20.2.2.4h.2v-.2l-.4-.2Zm36.8-75.9.4.2.1-.1v-.2l-.5.1Zm-20.3-58.4-.5-.2v.2l.5-.1Zm53.3-110.2a2.7 2.7 0 1 0 2.4-4.8 2.7 2.7 0 0 0-2.4 4.8ZM942.5 637.6l63-129.8-1-.5-62.9 129.9.9.4Zm62.6-129.6 58.5-20.3-.3-1-58.5 20.4.3 1Zm58.8-20.5 36.7-75.9-.9-.4L1063 487l.9.5Zm36.7-76.2-20.3-58.5-1 .3 20.4 58.5 1-.3Zm-20.3-58.1 54.5-112.6-.9-.4-54.5 112.6 1 .4Z"/><path fill="#BA8C4E" fill-opacity=".5" d="m943.5 690 .5-.2v.4l-.5-.2Zm-20.3-58.5-.5.2v-.4l.5.2Zm36.7-75.8-.4-.2v-.2h.3l.1.4Zm58.5-20.3.5.2-.1.2h-.2l-.2-.4Zm53.4-110.1a2.7 2.7 0 1 1 2.3-4.8 2.7 2.7 0 0 1-2.3 4.8ZM880 819.6l63-129.8.8.4L881 820l-.9-.4Zm63-129.4-20.4-58.5 1-.3 20.3 58.4-1 .4Zm-20.3-58.9 36.7-75.8.9.4-36.7 75.9-1-.5Zm37-76 58.4-20.4.4 1-58.5 20.3-.3-1Zm58.2-20.1 54.5-112.5.9.4-54.6 112.5-.8-.4Z"/><path fill="#BA8C4E" fill-opacity=".5" d="M1016.3 569.6h.5v.2l-.5-.2Zm-10.4-79-.5.1v-.3l.5.3Zm55.9-115.2-.5-.2v-.1l.2-.1.3.4Zm68.3-40.8.5.2v.2h-.2l-.3-.4ZM1212 166a2.7 2.7 0 0 1-1.3-3.6 2.7 2.7 0 1 1 1.2 3.6ZM920.2 766.7l95.6-197.3 1 .4L921 767.2l-.9-.5Zm95.6-197-10.4-79 1-.1 10.4 79h-1Zm-10.3-79.3 55.8-115.2 1 .4-56 115.3-.8-.4Zm56-115.4 68.4-40.8.5.9-68.4 40.7-.5-.8Zm68.2-40.6 82.9-171 .9.4-83 171-.8-.4Zm-70.9 199.2.5-.1v.3l-.5-.2Zm-20.3-58.4-.5.1v-.3l.5.2Zm36.7-75.9-.4-.2v-.2h.3l.1.4Zm58.5-20.3.4.3v.2h-.3l-.1-.5Zm53.3-110a2.7 2.7 0 1 1 2.4-4.9 2.7 2.7 0 0 1-2.4 4.8ZM995.4 663.1l63-129.8.8.4-62.9 129.9-.9-.5Zm63-129.4-20.4-58.5 1-.3 20.3 58.5-1 .3ZM1038 475l36.8-75.9.9.5-36.8 75.8-.9-.4Zm37-76.1 58.5-20.3.3 1-58.4 20.2-.3-1Zm58.2-20 54.6-112.6.9.4-54.6 112.6-.9-.5Z"/><path fill="#BA8C4E" fill-opacity=".5" d="m953.7 695-.2-.5h-.2v.2l.4.2Zm58.4-20.4.2.5h.2v-.3l-.4-.2Zm36.8-75.8.4.2.1-.2v-.2l-.5.2Zm-20.3-58.5-.5-.2v.4l.5-.2Zm53.4-110a2.7 2.7 0 1 0 2.3-4.9 2.7 2.7 0 0 0-2.3 4.8ZM891.2 825l63-129.9-1-.4-62.9 129.8 1 .5Zm62.6-129.6 58.5-20.3-.3-1-58.5 20.4.3.9Zm58.8-20.6 36.7-75.8-.9-.4-36.7 75.8.9.4Zm36.7-76.2-20.2-58.4-1 .3 20.3 58.5 1-.4Zm-20.3-58 54.6-112.6-1-.4-54.5 112.5 1 .5Z"/><path fill="#BA8C4E" fill-opacity=".5" d="m1003 563.2-.2-.4h-.1v.2l.4.2Zm68.4-40.8.3.4h.1v-.2l-.4-.2Zm55.9-115.2.4.2.1-.2v-.1h-.5Zm-10.4-79-.4-.2-.1.1v.2h.5Zm81.7-168.7c1.4.7 3 .1 3.6-1.2a2.7 2.7 0 1 0-3.6 1.2ZM908 760.8l95.6-197.4-.9-.4L907 760.3l.9.5Zm95.4-197.2 68.4-40.8-.5-.8-68.4 40.8.5.8Zm68.6-41 55.8-115.2-.9-.5-55.8 115.3.9.4Zm55.9-115.5-10.4-79-1 .2 10.4 79 1-.2Zm-10.4-78.7 82.9-171-1-.5-82.8 171.1.9.4Z"/><path fill="#BA8C4E" d="m970.1 596.7-.7-2-.7.3-.4.8 1.8.9Zm49.6-17.3.7 2 .8-.4.3-.7-1.8-.9Zm31.2-64.3 1.8.8.4-.7-.3-.8-1.9.7Zm-17.2-49.6-1.8-1-.4.8.3.8 1.9-.6Zm41.6-86a10.7 10.7 0 1 0 9.3-19.2 10.7 10.7 0 0 0-9.3 19.2ZM918.5 707.7 972 597.5l-3.6-1.7L914.9 706l3.6 1.7Zm52.3-109.2 49.6-17.2-1.3-3.8-49.7 17.3 1.4 3.7Zm50.7-18.2 31.2-64.4-3.6-1.7-31.2 64.4 3.6 1.7Zm31.3-65.9-17.2-49.6-3.8 1.3 17.2 49.6 3.8-1.3Zm-17.3-48 46.3-95.6-3.6-1.7-46.3 95.5 3.6 1.7Z"/><path fill="#BA8C4E" d="m918 751.5 1.8-.6.3.7-.4.8-1.8-.9ZM900.6 702l-1.9.6-.3-.7.4-.8 1.8.9Zm31.2-64.4-1.8-.8.4-.8.7-.3.7 2Zm49.6-17.2 1.8.9-.4.7-.7.3-.7-1.9Zm41.6-86a10.7 10.7 0 1 1 9.3-19.1 10.7 10.7 0 0 1-9.3 19.2ZM862.7 860.9l53.4-110.2 3.6 1.8-53.4 110.2-3.6-1.8ZM916 752.2l-17.2-49.7 3.8-1.3 17.2 49.6-3.8 1.4ZM899 701l31.1-64.3 3.6 1.7-31.2 64.4-3.6-1.8Zm32.2-65.4 49.7-17.2 1.3 3.8-49.7 17.2-1.3-3.8Zm48.5-16.2L1026 524l3.6 1.8-46.3 95.5-3.6-1.8Z"/><path fill="#BA8C4E" d="m979.7 649.3 2-.2v.6l-.2.5-1.8-.9Zm-8.8-67-2 .3v-.6l.2-.5 1.8.8Zm47.4-97.8-1.8-.9.3-.5.5-.3 1 1.7Zm58-34.6 1.9.9-.3.5-.5.3-1-1.7Zm65.8-135.6a10.7 10.7 0 1 1 9.2-19.2 10.7 10.7 0 0 1-9.2 19.2ZM896.8 816l81.1-167.5 3.6 1.7-81.2 167.5-3.5-1.7Zm81-166.4-8.9-67 4-.5 8.8 67-4 .5Zm-8.7-68.1 47.4-97.9 3.6 1.8-47.4 97.8-3.6-1.7Zm48.2-98.7 58-34.6 2 3.4-58 34.6-2-3.4Zm57.3-33.8 70.3-145.2 3.6 1.8-70.3 145.2-3.7-1.8Z"/><path fill="#BA8C4E" fill-opacity=".5" d="m1066 442.9.4-.2v.4l-.5-.2Zm-20.4-58.5-.4.2-.1-.2v-.2l.5.2Zm36.8-75.8-.5-.2.1-.2h.2l.2.4Zm58.4-20.3.5.2-.1.2h-.2l-.2-.4Zm53.4-110.2a2.7 2.7 0 1 1 2.3-4.8 2.7 2.7 0 0 1-2.3 4.8Zm-191.6 394.4 62.9-129.9.9.5-63 129.8-.8-.4Zm62.9-129.5-20.3-58.4.9-.4 20.3 58.5-1 .3Zm-20.3-58.8 36.7-75.8 1 .4-36.8 75.8-1-.4Zm37-76 58.5-20.4.3 1-58.5 20.3-.3-1Zm58.2-20.1 54.5-112.6.9.5-54.5 112.5-1-.4Z"/><path fill="#BA8C4E" fill-opacity=".5" d="m960.8 604.2-.1-.5h-.2l-.1.2.4.3Zm58.5-20.3.1.4h.2l.1-.2-.4-.2ZM1056 508l.5.3v-.4l-.5.1Zm-20.3-58.4-.4-.2-.1.2v.1l.5-.1Zm53.4-110.2a2.7 2.7 0 1 0 2.3-4.7 2.7 2.7 0 0 0-2.3 4.7ZM898.4 734.2l62.9-129.8-1-.5-62.8 129.9.9.4ZM961 604.6l58.4-20.3-.3-1-58.4 20.4.3 1Zm58.7-20.5 36.8-75.8-1-.5-36.7 75.8 1 .5Zm36.8-76.2-20.3-58.5-1 .3 20.3 58.5 1-.3Zm-20.3-58.1 54.5-112.5-.9-.5-54.5 112.6.9.4Z"/><path fill="#BA8C4E" fill-opacity=".5" d="m1010.2 472.4-.3-.4-.1.2.4.2Zm68.4-40.7.2.4h.2v-.2l-.4-.2Zm55.8-115.3.5.2v-.3h-.5Zm-10.4-79-.4-.2v.3h.5Zm81.8-168.6a2.7 2.7 0 1 0 2.3-4.8 2.7 2.7 0 0 0-2.3 4.8ZM915 670l95.6-197.4-.9-.4-95.6 197.4 1 .4Zm95.5-197.1 68.3-40.8-.5-.9L1010 472l.6.9Zm68.5-41 55.9-115.3-1-.4-55.8 115.2 1 .5Zm56-115.6-10.5-79-1 .2 10.4 79 1-.2Zm-10.5-78.6 82.9-171.1-.9-.4-82.9 171 .9.5Zm-48.4 210.1-.2-.5h-.2v.3l.4.2Zm58.5-20.3.1.5.2-.1.1-.2-.4-.2Zm36.7-75.8.5.2v-.4l-.5.2Zm-20.3-58.5-.4-.2-.1.2v.2l.5-.2Zm53.4-110.1c1.3.6 2.9 0 3.5-1.3.7-1.3.1-2.9-1.2-3.5a2.7 2.7 0 1 0-2.3 4.8Zm-190.8 394.8 63-129.9-1-.4-62.8 129.8.9.5Zm62.7-129.6 58.4-20.3-.3-1-58.5 20.3.4 1Zm58.7-20.6 36.8-75.8-1-.4-36.7 75.8 1 .4Zm36.8-76.2-20.3-58.4-1 .3 20.3 58.4 1-.3Zm-20.3-58 54.5-112.6-1-.4-54.4 112.5.9.4Z"/><path fill="#BA8C4E" fill-opacity=".5" d="m1014.6 630.2.5-.1v.4l-.5-.3Zm-20.3-58.4-.4.1v-.3l.4.2Zm36.8-75.8-.5-.3.1-.1.2-.1.2.5Zm58.4-20.3.5.2-.1.2h-.2l-.2-.4Zm53.4-110.2a2.7 2.7 0 0 1 2.3-4.8 2.7 2.7 0 1 1-2.3 4.8ZM951.3 760l62.9-129.9.9.5-63 129.8-.8-.4Zm62.9-129.5L993.9 572l1-.3 20.2 58.5-1 .3Zm-20.3-58.8 36.7-75.9 1 .5-36.8 75.8-.9-.4Zm37-76.1 58.5-20.3.3 1-58.5 20.2-.3-1Zm58.2-20 54.5-112.6 1 .4L1090 476l-1-.5Z"/><path fill="#BA8C4E" fill-opacity=".5" d="m1087.4 509.9.5-.1v.2l-.5-.2Zm-10.3-79h-.5v-.2l.5.2Zm55.8-115.2-.4-.3v-.1h.2l.2.4Zm68.4-40.8.4.2v.1l-.2.1-.2-.4Zm81.7-168.7a2.7 2.7 0 1 1 2.3-4.8 2.7 2.7 0 0 1-2.3 4.8ZM991.4 707l95.6-197.4.9.5-95.7 197.3-.8-.4Zm95.5-197-10.3-79 1-.1 10.3 78.9-1 .1Zm-10.3-79.3 55.9-115.3.9.5-55.9 115.2-.9-.4Zm56-115.5 68.4-40.8.5 1-68.3 40.7-.5-.9Zm68.2-40.5 83-171.1.8.4-82.9 171.1-.9-.4ZM1130 473.9l.4-.2v.4l-.5-.2Zm-20.4-58.5-.4.2-.1-.2v-.2l.5.2Zm36.8-75.8-.5-.2.1-.2h.2l.2.4Zm58.4-20.3.5.2-.1.2h-.2l-.2-.4Zm53.4-110.1a2.7 2.7 0 1 1 2.3-4.8 2.7 2.7 0 0 1-2.3 4.8Zm-191.6 394.3 62.9-129.8.9.4-63 129.8-.8-.4Zm62.9-129.5-20.3-58.4.9-.3 20.3 58.4-1 .3Zm-20.3-58.8 36.7-75.8 1 .4-36.8 75.8-1-.4Zm37-76 58.5-20.4.3 1-58.5 20.3-.3-1Zm58.2-20.1 54.5-112.6.9.5-54.5 112.5-1-.4Z"/><path fill="#BA8C4E" fill-opacity=".5" d="m1024.8 635.2-.1-.5h-.2l-.1.3.4.2Zm58.5-20.3.2.5.1-.1.1-.2-.4-.2ZM1120 539l.5.2v-.4l-.5.2Zm-20.3-58.5-.4-.2-.1.2v.2l.5-.2Zm53.4-110.1a2.7 2.7 0 1 0 2.3-4.8 2.7 2.7 0 0 0-2.3 4.8ZM962.4 765.2l62.9-129.8-1-.4-62.8 129.8.9.4Zm62.6-129.6 58.5-20.2-.4-1-58.4 20.3.3 1Zm58.7-20.5 36.8-75.8-1-.5-36.7 75.9 1 .4Zm36.8-76.2-20.3-58.5-1 .4 20.3 58.4 1-.3Zm-20.3-58 54.5-112.6-.9-.5-54.5 112.6.9.4Z"/><path fill="#BA8C4E" fill-opacity=".5" d="m1074.2 503.4-.3-.4-.2.2.5.2Zm68.4-40.7.2.4h.2v-.2l-.4-.2Zm55.8-115.3.5.2v-.3l-.5.1Zm-10.3-79-.5-.1v.2h.5Zm81.7-168.6a2.7 2.7 0 1 0 2.3-4.8 2.7 2.7 0 0 0-2.3 4.8ZM979 701l95.7-197.3-1-.5-95.6 197.4 1 .4Zm95.5-197.1 68.3-40.8-.5-.9L1074 503l.5.9Zm68.5-41 55.9-115.3-1-.4-55.8 115.2 1 .5Zm56-115.6-10.5-78.9-1 .1 10.4 79 1-.2Zm-10.5-78.6 82.9-171-.9-.5-82.9 171 1 .5Z"/><path fill="#BA8C4E" d="m851.3 605.7-.6-1.9-.8.3-.4.7 1.8 1Zm41.4-14.3.6 1.8.8-.2.4-.8-1.8-.8Zm26-53.7 1.8.9.3-.8-.2-.7-2 .6Zm-14.4-41.3-1.8-.9-.3.7.2.8 2-.6Zm34-70a10.7 10.7 0 1 0 9.3-19.2 10.7 10.7 0 0 0-9.4 19.2Zm-129.7 272 44.5-91.8-3.6-1.8-44.5 91.9 3.6 1.7Zm43.4-90.8 41.3-14.4-1.3-3.7-41.3 14.3 1.3 3.8Zm42.5-15.4 26-53.6-3.6-1.8-26 53.7 3.6 1.7Zm26-55.1-14.3-41.4-3.8 1.3 14.4 41.4 3.8-1.3Zm-14.4-39.9 38.6-79.6-3.6-1.7-38.6 79.6 3.6 1.7Z"/><path fill="#BA8C4E" d="m807.9 734.8 1.9-.7.2.8-.3.7-1.8-.8Zm-14.4-41.4-1.9.7-.3-.8.4-.8 1.8 1Zm26-53.6-1.8-.9.4-.7.7-.3.7 1.9Zm41.3-14.4 1.8.9-.3.7-.8.3-.7-1.9Zm34-70a10.7 10.7 0 1 1 9.3-19.2 10.7 10.7 0 0 1-9.3 19.2ZM761.6 825.7 806 734l3.6 1.7-44.5 91.9-3.6-1.8Zm44.4-90.3-14.4-41.3 3.8-1.3 14.4 41.3-3.8 1.3Zm-14.3-42.9 26-53.6 3.6 1.8-26 53.6-3.6-1.8Zm27.1-54.6 41.4-14.4 1.3 3.8-41.3 14.4-1.4-3.8Zm40.2-13.3 38.6-79.7 3.6 1.8-38.6 79.6-3.6-1.7Z"/><path fill="#BA8C4E" d="m859.4 649.6 2-.3v.6l-.2.6-1.8-.9Zm-7.4-55.8-2 .2v-.6l.2-.5 1.8.9Zm39.5-81.6-1.8-.8.3-.6.5-.3 1 1.7Zm48.4-28.8 1.8.9-.3.5-.5.3-1-1.7Zm54-111.4a10.7 10.7 0 1 1 9.3-19.2 10.7 10.7 0 0 1-9.3 19.2Zm-204 416.3 67.7-139.6 3.6 1.8L793.5 790l-3.6-1.8ZM857.4 650l-7.4-56 4-.5 7.3 55.8-4 .6Zm-7.2-57 39.5-81.5 3.6 1.7-39.5 81.5-3.6-1.7Zm40.3-82.4 48.4-28.8 2 3.4-48.4 28.9-2-3.5Zm47.6-28 58.6-121 3.6 1.8-58.6 121-3.6-1.8Z"/><path fill="#BA8C4E" fill-opacity=".5" d="m962.1 430.5.5-.2v.4l-.5-.2ZM941.8 372l-.5.2v-.4l.5.2Zm36.8-75.8-.5-.2v-.2l.3-.1.2.5Zm58.4-20.3.5.2-.1.2h-.2l-.2-.4Zm53.4-110.2a2.7 2.7 0 1 1 2.3-4.8 2.7 2.7 0 0 1-2.3 4.8ZM898.7 560.1l63-129.9.9.5-63 129.8-.9-.4Zm63-129.5-20.4-58.4 1-.4 20.3 58.5-1 .3Zm-20.3-58.8L978 296l.9.4-36.7 75.8-1-.4Zm37-76.1 58.4-20.3.4 1-58.5 20.2-.3-.9Zm58.2-20L1091 163l.9.5-54.5 112.5-1-.4Z"/><path fill="#BA8C4E" fill-opacity=".5" d="m857 591.8-.2-.5h-.1l-.1.2.4.3Zm58.5-20.3.1.4h.2l.1-.2-.4-.2Zm36.7-75.9.5.3v-.4l-.5.1ZM932 437.2l-.4-.2-.1.1v.2l.5-.1ZM985.3 327a2.7 2.7 0 1 0 2.3-4.8 2.7 2.7 0 0 0-2.3 4.8ZM794.6 721.8 857.5 592l-1-.5-62.8 129.9.9.4Zm62.6-129.6 58.4-20.3-.3-1-58.5 20.4.4 1Zm58.7-20.5 36.8-75.8-1-.5-36.7 75.8 1 .5Zm36.8-76.2L932.4 437l-1 .3 20.3 58.5 1-.3Zm-20.3-58.1 54.5-112.5-1-.5L931.6 437l.9.4Z"/><path fill="#BA8C4E" fill-opacity=".5" d="m906.4 460-.3-.4h-.1v.2l.4.2Zm68.4-40.8.2.5.2-.1v-.1l-.4-.3Zm55.8-115.2.5.2v-.3h-.5Zm-10.4-79-.4-.2v.3h.4ZM1102 56.5c1.3.6 2.9 0 3.5-1.3.7-1.3.1-2.9-1.2-3.5a2.7 2.7 0 1 0-2.3 4.8ZM811.2 657.6l95.6-197.4-.9-.4-95.6 197.4 1 .4Zm95.4-197.1 68.4-40.8-.5-.9-68.4 40.8.5.9Zm68.6-41 55.9-115.3-1-.4L974.4 419l1 .5Zm56-115.6-10.5-79-1 .2 10.4 79 1-.2Zm-10.5-78.6 82.9-171.1-1-.4-82.8 171 .9.5Zm-48.4 210.1-.2-.5h-.2v.3l.4.2Zm58.5-20.3.1.5.2-.1.1-.2-.5-.2Zm36.7-75.8.4.2.1-.2v-.2l-.5.2Zm-20.3-58.5-.5-.2v.4l.5-.2Zm53.4-110.1a2.7 2.7 0 1 0 2.3-4.8 2.7 2.7 0 0 0-2.3 4.8ZM909.8 565.4l63-129.8-1-.4L909 565l1 .4ZM972.5 436l58.4-20.3-.3-1L972 435l.4 1Zm58.7-20.6 36.7-75.8-.9-.4-36.7 75.8.9.4Zm36.8-76.2-20.3-58.4-1 .3 20.3 58.4 1-.3Zm-20.4-58 54.6-112.6-1-.4-54.5 112.5 1 .4Z"/><path fill="#BA8C4E" fill-opacity=".5" d="m910.8 617.8.5-.1v.4l-.5-.3Zm-20.3-58.4-.4.1-.1-.2v-.1l.5.2Zm36.8-75.8-.5-.3.1-.2h.2l.2.5Zm58.4-20.3.5.2-.1.2h-.2l-.2-.4Zm53.4-110.2a2.7 2.7 0 1 1 2.3-4.8 2.7 2.7 0 0 1-2.3 4.8ZM847.5 747.5l62.9-129.9.9.5-63 129.8-.8-.4ZM910.4 618 890 559.5l1-.3 20.2 58.5-1 .3ZM890 559.2l36.7-75.9 1 .5-36.8 75.8-1-.4Zm37-76.1 58.5-20.3.3 1-58.5 20.2-.3-1Zm58.2-20 54.5-112.6 1 .4-54.6 112.6-1-.5Z"/><path fill="#BA8C4E" fill-opacity=".5" d="M983.6 497.4h.5v.3l-.5-.3Zm-10.4-78.9h-.4v-.2l.4.2Zm55.9-115.3-.4-.2v-.1h.1l.3.4Zm68.4-40.7.4.2v.1l-.2.1-.2-.4Zm81.7-168.7a2.7 2.7 0 1 1 2.3-4.8 2.7 2.7 0 0 1-2.3 4.8ZM887.5 694.6l95.7-197.4.9.5L888.4 695l-.9-.4Zm95.6-197-10.3-79 1-.2 10.3 79-1 .1Zm-10.3-79.3 55.9-115.3.8.5-55.8 115.2-.9-.4Zm56-115.5 68.4-40.8.5.9-68.4 40.8-.5-.9Zm68.2-40.5 83-171.1.8.4-82.9 171-.9-.3Zm-70.9 199.2.5-.2v.4l-.5-.2Zm-20.3-58.5-.5.2v-.4l.5.2Zm36.8-75.8-.5-.2.1-.2h.2l.2.4Zm58.4-20.3.5.2-.1.2h-.2l-.2-.4Zm53.4-110.1a2.7 2.7 0 0 1-1.3-3.6 2.7 2.7 0 1 1 1.2 3.6ZM962.8 591l62.9-129.8.9.4-63 129.8-.8-.4Zm62.8-129.5-20.3-58.4 1-.3 20.3 58.4-1 .3Zm-20.2-58.8L1042 327l1 .4-36.8 75.8-1-.4Zm37-76 58.4-20.4.4 1-58.5 20.3-.3-1Zm58.2-20.1L1155 194l.9.5-54.5 112.5-1-.4Z"/><path fill="#BA8C4E" fill-opacity=".5" d="m921 622.8-.1-.5h-.2l-.1.3.4.2Zm58.5-20.3.1.4h.2l.1-.2-.4-.2Zm36.7-75.9.5.3v-.4l-.5.1ZM996 468.2l-.4-.2-.1.2v.2l.5-.2Zm53.4-110.1a2.7 2.7 0 1 0 2.3-4.8 2.7 2.7 0 0 0-2.3 4.8ZM858.6 752.8 921.5 623l-1-.4-62.8 129.8.9.4Zm62.6-129.6 58.4-20.3-.3-.9-58.4 20.3.3 1Zm58.7-20.5 36.8-75.8-1-.5-36.7 75.9 1 .4Zm36.8-76.2L996.4 468l-1 .4 20.3 58.4 1-.3Zm-20.3-58 54.5-112.6-.9-.5L995.5 468l.9.4Z"/><path fill="#BA8C4E" fill-opacity=".5" d="m970.4 491-.3-.4-.2.2.5.2Zm68.4-40.7.2.4h.2v-.2l-.4-.2Zm55.8-115.3.5.2v-.2l-.5.1Zm-10.3-79-.5-.2v.3h.5ZM1166 87.5a2.7 2.7 0 1 0 2.3-4.8 2.7 2.7 0 0 0-2.3 4.8ZM875.2 688.6l95.6-197.3-.9-.5-95.6 197.4 1 .4Zm95.4-197.1 68.4-40.8-.5-.9-68.4 40.8.5.9Zm68.6-41 55.9-115.3-1-.4-55.8 115.2 1 .5Zm56-115.6-10.5-78.9-1 .1 10.4 79 1-.2Zm-10.5-78.6 82.9-171-1-.5-82.8 171 .9.5Z"/><path fill="#BA8C4E" d="m586.2 596.3.6-1.9.8.3.4.7-1.8 1ZM513.4 571l-.7 2-.7-.3-.4-.8 1.8-.9Zm-45.7-94.3-1.8.8-.4-.7.3-.8 1.9.7Zm25.2-72.8 1.8-.9.4.8-.3.8-1.9-.7Zm-63.2-130.5a10.7 10.7 0 1 1-9.3-19.2 10.7 10.7 0 0 1 9.3 19.2Zm233 485.4-78.3-161.6 3.6-1.8L666.3 757l-3.6 1.8Zm-77.2-160.6-72.8-25.3 1.4-3.7 72.7 25.2-1.3 3.8Zm-73.9-26.3-45.7-94.4 3.6-1.7 45.7 94.4-3.6 1.7ZM465.8 476l25.2-72.7 3.8 1.3-25.2 72.7-3.8-1.3Zm25.3-71.2-67.8-140.1 3.6-1.7 67.8 140-3.6 1.8Z"/><path fill="#BA8C4E" d="m662.7 823.4-2-.7-.2.8.4.8 1.8-.9Zm25.2-72.8 2 .7.2-.8-.4-.7-1.8.8Zm-45.7-94.3 1.8-1-.4-.7-.8-.2-.6 1.9ZM569.4 631l-1.8.9.4.7.8.3.6-2Zm-63.2-130.5a10.7 10.7 0 1 0-9.3-19.2 10.7 10.7 0 0 0 9.3 19.2Zm236.6 483.6-78.3-161.6-3.6 1.8 78.3 161.6 3.6-1.8Zm-78.3-160 25.3-72.8-3.8-1.3-25.2 72.7 3.7 1.4Zm25.2-74.3L644 655.4l-3.6 1.7 45.7 94.4 3.6-1.7Zm-46.9-95.4L570.1 629l-1.3 3.8 72.7 25.2 1.3-3.7ZM571.2 630l-67.8-140-3.6 1.7 67.8 140 3.6-1.7Z"/><path fill="#BA8C4E" d="m572 673.5-2-.2v.6l.3.5 1.8-.9Zm13-98.2 2 .3v-.6l-.2-.6-1.8.9Zm-69.5-143.5 1.8-.8-.3-.6-.5-.3-1 1.7Zm-85.2-50.7-1.8.8.3.6.5.3 1-1.7Zm-98.5-203.4a10.7 10.7 0 1 0-9.3-19.2 10.7 10.7 0 0 0 9.3 19.2Zm361 740.6-119-245.6-3.5 1.7 119 245.7 3.6-1.8ZM574 673.8l13-98.2-4-.6-13 98.3 4 .5Zm12.8-99.4L517.3 431l-3.6 1.7 69.5 143.5 3.6-1.8Zm-70.3-144.3-85.1-50.7-2 3.4 85 50.7 2-3.4ZM432 380.2l-103-213-3.6 1.8 103.1 213 3.6-1.8Z"/><path fill="#BA8C4E" fill-opacity=".5" d="m532.2 502.6-.5-.2v.4l.5-.2Zm20.3-58.4.5.1v-.4l-.5.3Zm-36.7-75.9.4-.2v-.2h-.3l-.1.4ZM457.3 348l-.4.3v.1l.2.1.2-.5ZM404 238a2.7 2.7 0 1 0-2.3-4.8 2.7 2.7 0 0 0 2.3 4.8Zm191.7 394.3-63-129.8-.8.4 62.9 129.9.9-.5Zm-63-129.4 20.4-58.5-1-.3-20.3 58.4 1 .4Zm20.4-58.9-36.8-75.8-.9.5 36.8 75.8.9-.5Zm-37-76-58.5-20.3-.4 1 58.5 20.2.3-1Zm-58.2-20-54.6-112.6-.9.4L457 348.3l.9-.5Z"/><path fill="#BA8C4E" fill-opacity=".5" d="m637.3 664 .2-.6.2.1v.2l-.4.2Zm-58.5-20.4-.1.5h-.2l-.1-.3.4-.2Zm-36.7-75.8-.4.2-.1-.2v-.2l.5.2Zm20.3-58.5.5-.2v.4l-.5-.2ZM509 399.2a2.7 2.7 0 1 1-2.3-4.8 2.7 2.7 0 0 1 2.3 4.8ZM699.8 794l-63-129.9 1-.4 62.9 129.8-1 .5ZM637 664.4 578.7 644l.3-1 58.5 20.3-.4 1Zm-58.7-20.6L541.7 568l.9-.4 36.7 75.8-.9.4Zm-36.8-76.2 20.3-58.4 1 .3-20.3 58.5-1-.4Zm20.4-58L507.4 397l1-.4L562.8 509l-1 .5Z"/><path fill="#BA8C4E" fill-opacity=".5" d="m588 532.2.2-.4h.1v.2l-.4.2Zm-68.4-40.8-.3.4h-.1l-.1-.2.5-.2Zm-55.9-115.3-.4.3-.1-.2v-.1h.5Zm10.4-78.9.4-.2v.3h-.4Zm-81.8-168.7a2.7 2.7 0 1 1-2.3-4.8 2.7 2.7 0 0 1 2.3 4.8Zm290.8 601.3-95.6-197.4.9-.4L684 729.3l-.9.5Zm-95.4-197.2-68.4-40.8.5-.8 68.4 40.8-.5.8Zm-68.6-41-55.8-115.2.9-.5L520 491.2l-.9.4Zm-55.9-115.5 10.4-79 1 .2-10.4 79-1-.2Zm10.4-78.7-82.9-171 1-.5 82.8 171-.9.5ZM522 507.5l.2-.4h.2v.2l-.4.2Zm-58.4-20.2-.2.4h-.2v-.2l.4-.2Zm-36.8-75.9-.4.2-.1-.1v-.2l.5.1Zm20.3-58.4.5-.2v.2l-.5-.1Zm-53.3-110.2a2.7 2.7 0 1 1-2.4-4.8 2.7 2.7 0 0 1 2.4 4.8Zm190.7 394.8-63-129.8 1-.5 62.9 129.9-1 .4ZM521.9 508l-58.5-20.3.3-1 58.5 20.4-.3 1ZM463 487.5l-36.7-75.9.9-.4L464 487l-.9.5Zm-36.7-76.2 20.3-58.5.9.3-20.3 58.5-1-.3Zm20.3-58.1L392 240.6l1-.4 54.5 112.6-1 .4Z"/><path fill="#BA8C4E" fill-opacity=".5" d="m583.5 690-.5-.2v.4l.5-.2Zm20.3-58.5.5.2v-.4l-.5.2ZM567 555.7l.5-.2-.1-.2h-.2l-.2.4Zm-58.4-20.3-.5.2.1.2h.2l.2-.4Zm-53.4-110.1a2.7 2.7 0 1 0-2.3-4.8 2.7 2.7 0 0 0 2.3 4.8Zm191.6 394.3L584 689.8l-.9.4L646 820l.8-.4ZM584 690.2l20.3-58.5-1-.3-20.3 58.4 1 .4Zm20.2-58.9-36.7-75.8-1 .4 36.8 75.9 1-.5Zm-37-76-58.4-20.4-.4 1 58.5 20.3.3-1ZM509 535.1l-54.5-112.5-.9.4 54.5 112.5 1-.4Z"/><path fill="#BA8C4E" fill-opacity=".5" d="M510.7 569.6h-.5v.2l.5-.2Zm10.4-79 .5.1v-.3l-.5.3Zm-55.9-115.2.5-.2v-.1l-.2-.1-.3.4Zm-68.4-40.8-.4.2v.2h.2l.2-.4ZM315.1 166a2.7 2.7 0 1 0-2.3-4.8 2.7 2.7 0 0 0 2.3 4.8Zm291.7 600.7L511 569.4l-.9.4L606 767.2l.9-.5Zm-95.6-197 10.4-79-1-.1-10.4 79h1Zm10.3-79.3-55.8-115.2-1 .4 56 115.3.8-.4Zm-56-115.4L397 334.2l-.5.9 68.4 40.7.5-.8Zm-68.2-40.6-82.9-171-.9.4 82.9 171 .9-.4Zm70.9 199.2-.5-.1v.3l.5-.2Zm20.3-58.4.5.1v-.3l-.5.2Zm-36.7-75.9.4-.2v-.2h-.3l-.1.4ZM393.3 379l-.4.3v.2h.2l.2-.5ZM340 269a2.7 2.7 0 1 0-2.3-4.9 2.7 2.7 0 0 0 2.3 4.8Zm191.7 394.2-63-129.8-.8.4 62.9 129.9.9-.5Zm-63-129.4 20.4-58.5-1-.3-20.3 58.5 1 .3ZM489 475l-36.8-76-.9.5 36.8 75.8.9-.4Zm-37-76.1-58.5-20.3-.4 1 58.5 20.2.3-1Zm-58.2-20-54.6-112.6-.9.4L393 379.3l.9-.5Z"/><path fill="#BA8C4E" fill-opacity=".5" d="m573.3 695 .2-.5h.2v.2l-.4.2Zm-58.5-20.4-.1.5h-.2l-.1-.3.4-.2Zm-36.7-75.8-.4.2-.1-.2v-.2l.5.2Zm20.3-58.5.5-.2v.4l-.5-.2Zm-53.4-110a2.7 2.7 0 1 1-2.3-4.9 2.7 2.7 0 0 1 2.3 4.8ZM635.8 825l-63-129.9 1-.4 62.9 129.8-1 .5ZM573 695.4l-58.4-20.3.3-1 58.5 20.4-.4.9Zm-58.7-20.6L477.7 599l.9-.4 36.7 75.8-.9.4Zm-36.8-76.2 20.3-58.4 1 .3-20.3 58.5-1-.4Zm20.4-58L443.4 428l1-.4L498.8 540l-1 .5Z"/><path fill="#BA8C4E" fill-opacity=".5" d="m524 563.2.2-.4h.1v.2l-.4.2Zm-68.5-40.8-.2.4h-.1l-.1-.2.4-.2Zm-55.8-115.2-.5.2v-.4h.5Zm10.4-79 .4-.2v.3h-.4Zm-81.8-168.7a2.7 2.7 0 1 1-2.3-4.8 2.7 2.7 0 0 1 2.3 4.8Zm290.8 601.3-95.6-197.4.9-.4L620 760.3l-.9.5Zm-95.4-197.2-68.4-40.8.5-.8 68.4 40.8-.5.8Zm-68.6-41-55.9-115.2 1-.5L456 522.2l-.9.4Zm-55.9-115.5 10.4-79 1 .2-10.4 79-1-.2Zm10.4-78.7-82.9-171 1-.5L410.4 328l-.9.4Z"/><path fill="#BA8C4E" d="m556.9 596.7.6-2 .8.3.4.8-1.8.9Zm-49.6-17.3-.7 2-.8-.4-.3-.7 1.8-.9ZM476 515.1l-1.8.8-.4-.7.3-.8 1.9.7Zm17.2-49.6 1.8-1 .4.8-.3.8-1.9-.6Zm-41.6-86a10.7 10.7 0 1 1-9.3-19.2 10.7 10.7 0 0 1 9.3 19.2Zm156.8 328.2L555 597.5l3.6-1.7L612 706l-3.6 1.7Zm-52.3-109.2-49.6-17.2 1.3-3.8 49.6 17.3-1.3 3.7Zm-50.7-18.2-31.2-64.4 3.6-1.7 31.2 64.4-3.6 1.7Zm-31.3-65.9 17.2-49.6 3.8 1.3-17.2 49.6-3.8-1.3Zm17.3-48-46.3-95.6 3.6-1.7 46.3 95.5-3.6 1.7Z"/><path fill="#BA8C4E" d="m609 751.5-1.8-.6-.3.7.3.8 1.8-.9Zm17.3-49.6 1.9.6.2-.7-.3-.8-1.8.9ZM595 637.5l1.8-.8-.4-.8-.8-.3-.6 2Zm-49.6-17.2-1.8.9.3.7.8.3.7-1.9Zm-41.7-86a10.7 10.7 0 1 0-9.3-19.1 10.7 10.7 0 0 0 9.3 19.2Zm160.4 326.5-53.4-110.2-3.6 1.8 53.4 110.2 3.6-1.8ZM611 752.2l17.3-49.7-3.8-1.3-17.2 49.6 3.7 1.4Zm17.2-51.2L597 636.7l-3.6 1.7 31.2 64.4 3.6-1.8Zm-32.4-65.4-49.6-17.2-1.3 3.8 49.6 17.2 1.3-3.8Zm-48.4-16.2L501 524l-3.6 1.8 46.3 95.5 3.6-1.8Z"/><path fill="#BA8C4E" d="m547.3 649.3-2-.2v.6l.2.5 1.8-.9Zm8.8-67 2 .3v-.6l-.2-.5-1.8.8Zm-47.4-97.8 1.8-.9-.3-.5-.5-.3-1 1.7Zm-58-34.6-1.9.9.3.5.5.3 1-1.7Zm-65.8-135.6a10.7 10.7 0 1 0-9.3-19.2 10.7 10.7 0 0 0 9.3 19.2ZM630.2 816l-81.1-167.5-3.6 1.7 81.1 167.5 3.6-1.7Zm-81-166.4 8.9-67-4-.5-8.8 67 4 .5Zm8.7-68.1-47.4-97.9-3.6 1.8 47.4 97.8 3.6-1.7Zm-48.2-98.7-58-34.6-2 3.4 58 34.6 2-3.4ZM452.4 449l-70.3-145.2-3.6 1.8 70.3 145.2 3.6-1.8Z"/><path fill="#BA8C4E" fill-opacity=".5" d="m461 442.9-.4-.2v.4l.5-.2Zm20.4-58.5.4.2.1-.2v-.2l-.5.2Zm-36.8-75.8.5-.2-.1-.2h-.2l-.2.4Zm-58.4-20.3-.5.2.1.2h.2l.2-.4ZM332.8 178a2.7 2.7 0 1 0-2.3-4.8 2.7 2.7 0 0 0 2.3 4.8Zm191.6 394.4-62.9-129.9-.9.5 63 129.8.8-.4ZM461.5 443l20.3-58.4-1-.4-20.2 58.5 1 .3Zm20.3-58.8-36.7-75.8-1 .4 36.8 75.8 1-.4Zm-37-76-58.5-20.4-.3 1 58.5 20.3.3-1ZM386.6 288l-54.5-112.6-1 .5 54.6 112.5 1-.4Z"/><path fill="#BA8C4E" fill-opacity=".5" d="m566.2 604.2.1-.5h.2l.1.2-.4.3Zm-58.5-20.3-.2.4h-.2v-.2l.4-.2ZM471 508l-.5.3v-.4l.5.1Zm20.3-58.4.4-.2.1.2v.1l-.5-.1Zm-53.4-110.2a2.7 2.7 0 1 1-2.3-4.8 2.7 2.7 0 0 1 2.3 4.8Zm190.7 394.8-62.9-129.8 1-.5 62.8 129.9-.9.4ZM566 604.6l-58.5-20.3.4-1 58.4 20.4-.3 1Zm-58.7-20.5-36.8-75.8 1-.5 36.7 75.8-1 .5Zm-36.8-76.2 20.3-58.5 1 .3-20.4 58.5-1-.3Zm20.3-58.1-54.5-112.5.9-.5 54.5 112.6-.9.4Z"/><path fill="#BA8C4E" fill-opacity=".5" d="m516.8 472.4.2-.4h.2v.2l-.4.2Zm-68.4-40.7-.3.4-.1-.2.4-.2Zm-55.8-115.3-.5.2v-.3h.5Zm10.3-79 .5-.2v.3h-.5ZM321.2 68.9a2.7 2.7 0 1 1-2.3-4.8 2.7 2.7 0 0 1 2.3 4.8ZM612 670l-95.7-197.4 1-.4 95.6 197.4-1 .4Zm-95.5-197-68.4-41 .6-.9L517 472l-.5.9ZM448 432l-56-115.4 1-.4 55.8 115.2-1 .5Zm-56-115.6 10.4-79 1 .2-10.3 79-1-.2Zm10.5-78.6-83-171.1 1-.4 82.9 171-1 .5Zm48.4 210 .1-.5h.2l.1.3-.4.2Zm-58.5-20.3-.1.5-.2-.1-.1-.2.4-.2Zm-36.7-75.8-.5.2v-.4l.5.2Zm20.3-58.5.4-.2.1.2v.2l-.5-.2Zm-53.4-110.1a2.7 2.7 0 1 1-2.3-4.8 2.7 2.7 0 0 1 2.3 4.8Zm190.7 394.8L450.4 448l1-.4 62.8 129.8-.9.5Zm-62.6-129.6L392.3 428l.3-1 58.4 20.3-.3 1ZM392 427.7 355.2 352l1-.4 36.7 75.8-1 .4Zm-36.8-76.2 20.3-58.4 1 .3-20.3 58.4-1-.3Zm20.3-58L321 180.8l.9-.4L376.4 293l-.9.4Z"/><path fill="#BA8C4E" fill-opacity=".5" d="m512.3 630.2-.4-.1-.1.2v.2l.5-.3Zm20.3-58.4.5.1v-.3l-.5.2ZM496 496l.4-.3v-.1l-.2-.1-.2.5Zm-58.5-20.3-.4.2v.2h.3l.1-.4Zm-53.3-110.2a2.7 2.7 0 1 0-2.4-4.8 2.7 2.7 0 0 0 2.4 4.8ZM575.7 760l-63-129.9-.8.5 62.9 129.8.9-.4Zm-62.9-129.5 20.3-58.5-1-.3-20.2 58.5 1 .3Zm20.3-58.8-36.8-75.9-.9.5 36.8 75.8.9-.4Zm-37-76.1-58.5-20.3-.3 1 58.4 20.2.4-1Zm-58.2-20L383.4 363l-1 .4L437 476l.9-.5Z"/><path fill="#BA8C4E" fill-opacity=".5" d="m439.6 509.9-.5-.1v.2l.5-.2Zm10.3-79h.5v-.2l-.5.2Zm-55.8-115.2.4-.3v-.1h-.2l-.2.4Zm-68.4-40.8-.5.2.1.1.1.1.3-.4ZM244 106.2a2.7 2.7 0 1 0-2.4-4.8 2.7 2.7 0 0 0 2.4 4.8ZM535.6 707 440 509.6l-.9.5 95.6 197.3 1-.4ZM440 510l10.4-79-1-.1-10.3 78.9 1 .1Zm10.4-79.3-55.9-115.3-.9.5L449.5 431l.9-.4Zm-56-115.5L326 274.4l-.6 1 68.4 40.7.5-.9ZM326 274.7l-82.8-171.1-1 .4 83 171.1.8-.4Zm71 199.2-.4-.2v.4l.5-.2Zm20.4-58.5.4.2.1-.2v-.2l-.5.2Zm-36.8-75.8.5-.2-.1-.2h-.2l-.2.4Zm-58.4-20.3-.5.2.1.2h.2l.2-.4Zm-53.4-110.1a2.7 2.7 0 1 0-2.3-4.8 2.7 2.7 0 0 0 2.3 4.8Zm191.6 394.3-62.9-129.8-.9.4 63 129.8.8-.4ZM397.5 474l20.3-58.4-1-.3-20.2 58.4 1 .3Zm20.3-58.8-36.7-75.8-1 .4 36.8 75.8 1-.4Zm-37-76-58.5-20.4-.3 1 58.5 20.3.3-1ZM322.6 319l-54.5-112.6-1 .5 54.6 112.5 1-.4Z"/><path fill="#BA8C4E" fill-opacity=".5" d="m502.2 635.2.1-.5h.2l.1.3-.4.2Zm-58.5-20.3-.2.5-.2-.1v-.2l.4-.2ZM407 539l-.5.2v-.4l.5.2Zm20.3-58.5.4-.2.1.2v.2l-.5-.2Zm-53.4-110.1a2.7 2.7 0 1 1-2.3-4.8 2.7 2.7 0 0 1 2.3 4.8Zm190.7 394.7-62.9-129.8 1-.4 62.8 129.8-.9.4ZM502 635.6l-58.5-20.2.4-1 58.4 20.3-.3 1Zm-58.8-20.5-36.7-75.8 1-.5 36.6 75.9-.9.4Zm-36.7-76.2 20.3-58.5 1 .4-20.4 58.4-1-.3Zm20.3-58-54.5-112.6.9-.5 54.5 112.6-.9.4Z"/><path fill="#BA8C4E" fill-opacity=".5" d="m452.8 503.4.2-.4h.2v.2l-.4.2Zm-68.4-40.7-.3.4-.1-.2.4-.2Zm-55.8-115.3-.5.2v-.3l.5.1Zm10.3-79 .5-.1v.2h-.5ZM257.2 99.9a2.7 2.7 0 1 1-2.3-4.8 2.7 2.7 0 0 1 2.3 4.8ZM548 701l-95.7-197.3 1-.5 95.6 197.4-1 .4Zm-95.5-197-68.4-41 .6-.9L453 503l-.5.9ZM384 463l-56-115.4.9-.4 55.9 115.2-1 .5Zm-56-115.6 10.4-78.9 1 .1-10.4 79-1-.2Zm10.5-78.6-83-171 1-.5 82.9 171-1 .5Z"/><path fill="#BA8C4E" d="m675.6 605.7.7-1.9.8.3.3.7-1.8 1Zm-41.3-14.3-.7 1.8-.7-.2-.4-.8 1.8-.8Zm-26-53.7-1.8.9-.4-.8.3-.7 1.9.6Zm14.4-41.3 1.8-.9.3.7-.3.8-1.8-.6Zm-34-70a10.7 10.7 0 1 1-9.3-19.2 10.7 10.7 0 0 1 9.3 19.2Zm129.6 272-44.5-91.8 3.6-1.8 44.5 91.9-3.6 1.7ZM675 607.6l-41.4-14.4 1.3-3.7 41.4 14.3-1.3 3.8Zm-42.5-15.4-26-53.6 3.6-1.8 26 53.7-3.6 1.7Zm-26-55.1 14.3-41.4 3.7 1.3-14.3 41.4-3.8-1.3Zm14.4-39.9-38.6-79.6 3.6-1.7 38.6 79.6-3.6 1.7Z"/><path fill="#BA8C4E" d="m719.1 734.8-1.9-.7-.2.8.3.7 1.8-.8Zm14.4-41.4 1.9.7.2-.8-.3-.8-1.8 1Zm-26-53.6 1.8-.9-.4-.7-.8-.3-.6 1.9ZM666 625.4l-1.8.9.4.7.8.3.6-1.9Zm-33.9-70a10.7 10.7 0 1 0-9.3-19.2 10.7 10.7 0 0 0 9.3 19.2Zm133.2 270.3L721 734l-3.6 1.7 44.5 91.9 3.6-1.8ZM721 735.4l14.4-41.3-3.8-1.3-14.4 41.3 3.8 1.3Zm14.3-42.9-26-53.6-3.6 1.8 26 53.6 3.6-1.8ZM708 638l-41.3-14.4-1.3 3.8 41.3 14.4 1.3-3.8Zm-40-13.4-38.5-79.7-3.6 1.8 38.5 79.6 3.6-1.7Z"/><path fill="#BA8C4E" d="m667.6 649.6-2-.3v.6l.2.6 1.8-.9Zm7.4-55.8 2 .2v-.6l-.2-.5-1.8.9Zm-39.5-81.6 1.8-.8-.3-.6-.5-.3-1 1.7ZM587 483.4l-1.8.9.3.5.5.3 1-1.7ZM533 372a10.7 10.7 0 1 0-9.3-19.2A10.7 10.7 0 0 0 533 372Zm204 416.3-67.7-139.6-3.6 1.8L733.5 790l3.6-1.8ZM669.6 650l7.4-56-4-.5-7.4 55.8 4 .6Zm7.2-57-39.5-81.5-3.6 1.7 39.5 81.5 3.6-1.7Zm-40.3-82.4L588 481.7l-2 3.4 48.3 28.9 2-3.5Zm-47.6-28-58.6-121-3.6 1.8 58.6 121 3.6-1.8Z"/><path fill="#BA8C4E" fill-opacity=".5" d="m564.9 430.5-.5-.2v.4l.5-.2Zm20.3-58.5.4.2.1-.2v-.2l-.5.2Zm-36.8-75.8.5-.2-.1-.2-.2-.1-.2.5ZM490 275.9l-.5.2.1.2h.2l.2-.4Zm-53.4-110.2a2.7 2.7 0 1 0-2.3-4.8 2.7 2.7 0 0 0 2.3 4.8Zm191.6 394.4-62.9-129.9-.9.5 63 129.8.8-.4Zm-62.9-129.5 20.3-58.4-.9-.4-20.3 58.5 1 .3Zm20.3-58.8L549 296l-1 .4 36.8 75.8 1-.4Zm-37-76.1-58.5-20.3-.3 1 58.5 20.2.3-.9Zm-58.2-20L436 163l-.9.5L489.5 276l1-.4Z"/><path fill="#BA8C4E" fill-opacity=".5" d="m670 591.8.1-.5h.2l.1.2-.4.3Zm-58.5-20.3-.1.4h-.2l-.1-.2.4-.2Zm-36.7-75.9-.5.3v-.4l.5.1Zm20.3-58.4.4-.2.1.1v.2l-.5-.1ZM541.7 327a2.7 2.7 0 1 1-2.3-4.8 2.7 2.7 0 0 1 2.3 4.8Zm190.7 394.8L669.5 592l1-.5 62.8 129.9-.9.4Zm-62.6-129.6L611.4 572l.3-1 58.4 20.4-.3 1Zm-58.7-20.5-36.8-75.8 1-.5 36.7 75.8-1 .5Zm-36.8-76.2 20.3-58.5 1 .3-20.4 58.5-.9-.3Zm20.3-58.1-54.5-112.5.9-.5L595.5 437l-.9.4Z"/><path fill="#BA8C4E" fill-opacity=".5" d="m620.6 460 .3-.4.1.2-.4.2Zm-68.4-40.8-.2.5-.2-.1v-.1l.4-.3ZM496.4 304l-.5.2v-.3h.5Zm10.3-79 .5-.2v.3h-.5ZM425 56.5a2.7 2.7 0 1 1-2.3-4.8 2.7 2.7 0 0 1 2.3 4.8Zm290.8 601.2L620 460.2l1-.4 95.6 197.4-1 .4Zm-95.5-197.1L552 419.7l.5-.9 68.4 40.8-.6.9Zm-68.5-41-55.9-115.3 1-.4L552.6 419l-1 .5Zm-56-115.6 10.4-79 1 .2-10.3 79-1-.2Zm10.5-78.6L423.4 54.2l.9-.4 82.9 171-1 .5Zm48.4 210 .2-.5h.1l.1.3-.4.2ZM496.2 415l-.1.5-.2-.1-.1-.2.4-.2Zm-36.7-75.8-.5.2v-.4l.5.2Zm20.3-58.5.4-.2.1.2v.2l-.5-.2Zm-53.4-110.1a2.7 2.7 0 1 1-2.3-4.8 2.7 2.7 0 0 1 2.3 4.8Zm190.8 394.7-63-129.8 1-.4L618 565l-.9.4ZM554.4 436 496 415.7l.3-1 58.5 20.3-.4 1Zm-58.7-20.6L459 339.5l1-.4 36.7 75.8-1 .4ZM459 339.1l20.3-58.4 1 .3-20.3 58.4-1-.3Zm20.3-58-54.5-112.6 1-.4 54.4 112.5-.9.4Z"/><path fill="#BA8C4E" fill-opacity=".5" d="m616.2 617.8-.5-.1v.4l.5-.3Zm20.2-58.4.5.1v-.3l-.5.2Zm-36.7-75.8.5-.3-.1-.2h-.2l-.2.5Zm-58.4-20.3-.5.2v.2h.3l.2-.4ZM487.9 353a2.7 2.7 0 1 0-2.3-4.8 2.7 2.7 0 0 0 2.3 4.8Zm191.6 394.4-62.9-129.9-.9.5 63 129.8.8-.4ZM616.6 618l20.3-58.5-1-.3-20.2 58.5 1 .3Zm20.3-58.8-36.7-75.9-1 .5 36.8 75.8.9-.4Zm-37-76.1-58.5-20.3-.3 1 58.4 20.2.4-1Zm-58.2-20-54.5-112.6-1 .4 54.6 112.6.9-.5Z"/><path fill="#BA8C4E" fill-opacity=".5" d="M543.4 497.4h-.5v.3l.5-.3Zm10.3-78.9h.5v-.2l-.5.2ZM498 303.2l.4-.2v-.1h-.2l-.2.3Zm-68.4-40.7-.4.2v.1l.2.1.2-.4ZM347.8 93.8a2.7 2.7 0 1 0-2.3-4.8 2.7 2.7 0 0 0 2.3 4.8Zm291.6 600.8-95.6-197.4-.9.5L638.5 695l1-.4Zm-95.5-197 10.3-79-1-.2-10.3 79 1 .1Zm10.3-79.3L498.3 303l-.9.5 55.9 115.2.9-.4Zm-56-115.5L429.7 262l-.5.9 68.3 40.8.5-.9ZM430 262.3 347 91.2l-.8.4 82.9 171 .9-.3Zm70.9 199.2-.5-.2v.4l.5-.2Zm20.3-58.5.4.2.1-.2v-.2l-.5.2Zm-36.8-75.8.5-.2-.1-.2h-.2l-.2.4ZM426 306.9l-.5.2.1.2h.2l.2-.4Zm-53.4-110.1a2.7 2.7 0 1 0-2.3-4.8 2.7 2.7 0 0 0 2.3 4.8ZM564.2 591l-62.9-129.8-.9.4 63 129.8.8-.4Zm-62.9-129.5 20.3-58.4-.9-.3-20.3 58.4 1 .3Zm20.3-58.8L485 327l-1 .4 36.8 75.8 1-.4Zm-37-76L426 306.3l-.3 1 58.5 20.3.3-1Zm-58.2-20.1L372 194l-1 .5L425.6 307l1-.4Z"/><path fill="#BA8C4E" fill-opacity=".5" d="m606 622.8.1-.5h.2l.1.3-.4.2Zm-58.5-20.3-.2.4h-.1l-.1-.2.4-.2Zm-36.7-75.9-.5.3v-.4l.5.1Zm20.3-58.4.4-.2.1.2v.2l-.5-.2ZM477.7 358a2.7 2.7 0 1 1-2.3-4.8 2.7 2.7 0 0 1 2.3 4.8Zm190.7 394.7L605.5 623l1-.4 62.8 129.8-.9.4Zm-62.6-129.6L547.3 603l.4-.9 58.4 20.3-.3 1Zm-58.7-20.5-36.8-75.8 1-.5 36.7 75.9-1 .4Zm-36.8-76.2 20.3-58.5 1 .4-20.4 58.4-.9-.3Zm20.3-58-54.5-112.6.9-.5L531.5 468l-.9.4Z"/><path fill="#BA8C4E" fill-opacity=".5" d="m556.6 491 .2-.4h.2v.2l-.4.2Zm-68.4-40.7-.2.4h-.2v-.2l.4-.2ZM432.4 335l-.5.2v-.2l.5.1Zm10.3-79 .5-.2v.3h-.5ZM361 87.5a2.7 2.7 0 1 1-2.3-4.8 2.7 2.7 0 0 1 2.3 4.8Zm290.8 601.2L556 491.3l1-.5 95.6 197.4-1 .4Zm-95.5-197.1L488 450.7l.5-.9 68.3 40.8-.5.9Zm-68.5-41-55.9-115.3 1-.4L488.6 450l-1 .5Zm-56-115.6 10.4-78.9 1 .1-10.3 79-1-.2Zm10.5-78.6-83-171 1-.5 82.9 171-1 .5Z"/><defs><filter id="a" width="1518.1" height="1045" x="5.2" y="0" color-interpolation-filters="sRGB" filterUnits="userSpaceOnUse"><feFlood flood-opacity="0" result="BackgroundImageFix"/><feColorMatrix in="SourceAlpha" result="hardAlpha" values="0 0 0 0 0 0 0 0 0 0 0 0 0 0 0 0 0 0 127 0"/><feOffset dy="4"/><feGaussianBlur stdDeviation="2"/><feComposite in2="hardAlpha" operator="out"/><feColorMatrix values="0 0 0 0 0 0 0 0 0 0 0 0 0 0 0 0 0 0 0.25 0"/><feBlend in2="BackgroundImageFix" result="effect1_dropShadow_88_3"/><feBlend in="SourceGraphic" in2="effect1_dropShadow_88_3" result="shape"/></filter></defs></svg>
