<svg xmlns="http://www.w3.org/2000/svg" fill="none" viewBox="0 0 1561 1093"><g filter="url(#a)"><g filter="url(#b)"><path fill="#323649" d="M25.23 0h1510.12l-510.33 1037H518.55L25.23 0Z"/><path stroke="#BA8C4E" stroke-width="3" d="M519.503 1035.5 27.61 1.5h1505.34l-508.86 1034H519.503Z"/></g><g filter="url(#c)"><circle cx="779.556" cy="920.512" r="32.383" stroke="#BA8C4E" stroke-dasharray="5 5" stroke-opacity=".65" stroke-width="20"/><path fill="#BA8C4E" d="m956.825 596.31-.656-1.89-.783.272-.361.746 1.8.872Zm72.755-25.264.66 1.89.78-.272.36-.746-1.8-.872Zm45.74-94.38 1.79.873.37-.746-.28-.783-1.88.656Zm-25.27-72.759-1.8-.872-.36.745.27.783 1.89-.656Zm63.23-130.48c5.3 2.568 11.68.353 14.25-4.948 2.56-5.302.35-11.682-4.95-14.251-5.3-2.569-11.68-.353-14.25 4.948-2.57 5.302-.36 11.682 4.95 14.251Zm-232.96 485.36 78.304-161.605-3.599-1.744-78.305 161.604 3.6 1.745Zm77.161-160.588 72.759-25.263-1.31-3.779-72.761 25.263 1.312 3.779Zm73.899-26.281 45.73-94.379-3.59-1.745-45.74 94.38 3.6 1.744Zm45.82-95.908-25.26-72.759-3.78 1.312 25.27 72.759 3.77-1.312Zm-25.35-71.231 67.88-140.08-3.6-1.744-67.88 140.08 3.6 1.744Z"/><path fill="#BA8C4E" d="m880.323 823.395 1.889-.656.272.783-.362.745-1.799-.872Zm-25.264-72.759-1.889.656-.272-.783.361-.745 1.8.872Zm45.731-94.38-1.799-.872.361-.746.782-.272.656 1.89Zm72.76-25.264 1.8.873-.361.745-.783.272-.656-1.89Zm63.22-130.48c-5.3-2.569-7.51-8.949-4.94-14.25 2.56-5.302 8.94-7.517 14.25-4.948 5.3 2.568 7.51 8.949 4.94 14.25-2.57 5.301-8.95 7.517-14.25 4.948ZM800.218 984.128l78.305-161.605 3.599 1.744-78.304 161.605-3.6-1.744Zm78.215-160.077-25.263-72.759 3.779-1.312 25.263 72.759-3.779 1.312Zm-25.174-74.287 45.732-94.38 3.599 1.744-45.731 94.38-3.6-1.744Zm46.875-95.398 72.76-25.263 1.312 3.779-72.76 25.263-1.312-3.779Zm71.616-24.246 67.87-140.079 3.6 1.744-67.87 140.08-3.6-1.745Z"/><path fill="#BA8C4E" d="m970.921 673.549 1.983-.261.078.594-.261.539-1.8-.872Zm-12.912-98.251-1.982.261-.079-.594.262-.539 1.799.872Zm69.521-143.467-1.8-.873.26-.538.51-.307 1.03 1.718Zm85.11-50.755 1.8.872-.26.539-.52.307-1.02-1.718Zm98.52-203.337c-5.3-2.569-7.51-8.949-4.95-14.25 2.57-5.302 8.95-7.517 14.25-4.948 5.31 2.569 7.52 8.949 4.95 14.25-2.57 5.302-8.95 7.517-14.25 4.948ZM850.09 918.333l119.031-245.656 3.6 1.744L853.69 920.078l-3.6-1.745Zm118.848-244.524-12.911-98.25 3.965-.521 12.912 98.25-3.966.521Zm-12.728-99.383 69.52-143.468 3.6 1.745-69.521 143.467-3.599-1.744Zm70.29-144.313 85.11-50.755 2.05 3.436-85.11 50.754-2.05-3.435Zm84.34-49.909 103.17-212.936 3.6 1.744-103.17 212.936-3.6-1.744Z"/><path fill="#BA8C4E" fill-opacity=".51" d="m1010.77 502.614.47-.164.07.195-.09.187-.45-.218Zm-20.294-58.456-.473.164-.068-.195.091-.187.45.218Zm36.744-75.825-.45-.218.09-.186.19-.068.17.472Zm58.45-20.297.45.218-.09.187-.19.068-.17-.473Zm53.37-110.141a2.665 2.665 0 0 1-1.24-3.562 2.676 2.676 0 0 1 3.57-1.237 2.67 2.67 0 0 1 1.23 3.562 2.661 2.661 0 0 1-3.56 1.237ZM947.412 632.23l62.908-129.834.9.436-62.908 129.834-.9-.436Zm62.888-129.452-20.297-58.456.945-.328 20.292 58.456-.94.328Zm-20.274-58.838 36.744-75.825.9.436-36.744 75.825-.9-.436Zm37.024-76.079 58.46-20.297.33.945-58.46 20.296-.33-.944Zm58.17-20.043 54.53-112.541.9.437-54.53 112.54-.9-.436Z"/><path fill="#BA8C4E" fill-opacity=".51" d="m905.677 663.914-.164-.473-.195.068-.091.187.45.218Zm58.456-20.297.164.472.195-.068.091-.186-.45-.218Zm36.737-75.825.45.218.09-.187-.06-.195-.48.164Zm-20.293-58.456-.45-.218-.091.187.068.195.473-.164Zm53.363-110.141c1.33.642 2.93.088 3.57-1.237.64-1.325.09-2.92-1.24-3.562a2.66 2.66 0 0 0-3.56 1.237 2.67 2.67 0 0 0 1.23 3.562ZM843.217 793.966l62.91-129.834-.9-.436-62.91 129.834.9.436Zm62.624-129.58 58.456-20.297-.328-.944-58.456 20.296.328.945Zm58.742-20.551 36.737-75.825-.9-.436-36.737 75.825.9.436Zm36.767-76.207-20.301-58.456-.945.328 20.296 58.456.95-.328Zm-20.323-58.074 54.533-112.541-.9-.436-54.533 112.541.9.436Z"/><path fill="#BA8C4E" fill-opacity=".51" d="m955.052 532.181-.256-.429-.129.077-.065.134.45.218Zm68.378-40.776.26.43.13-.077.06-.135-.45-.218Zm55.85-115.263.45.218.07-.134-.02-.149-.5.065Zm-10.37-78.935-.45-.218-.07.135.02.148.5-.065Zm81.73-168.674a2.665 2.665 0 1 0 2.32-4.8 2.665 2.665 0 1 0-2.32 4.8ZM859.871 729.762l95.631-197.363-.9-.436-95.631 197.363.9.436Zm95.437-197.151 68.382-40.776-.52-.859-68.374 40.776.512.859Zm68.572-40.988 55.85-115.263-.9-.436-55.85 115.263.9.436Zm55.9-115.546-10.38-78.935-.99.13 10.37 78.935 1-.13Zm-10.42-78.652 82.89-171.074-.9-.436-82.89 171.074.9.436ZM1020.96 507.549l-.17-.472-.19.068-.09.186.45.218Zm58.45-20.297.17.473.19-.068.09-.186-.45-.219Zm36.74-75.825.45.218.09-.186-.06-.196-.48.164Zm-20.29-58.455-.45-.218-.09.186.07.196.47-.164Zm53.37-110.141a2.665 2.665 0 1 0 2.32-4.8 2.665 2.665 0 1 0-2.32 4.8ZM958.498 637.602l62.912-129.835-.9-.436-62.912 129.835.9.436Zm62.622-129.581 58.46-20.296-.33-.945-58.46 20.297.33.944Zm58.74-20.55 36.74-75.826-.9-.436-36.74 75.825.9.437Zm36.77-76.208-20.3-58.455-.94.328 20.29 58.455.95-.328Zm-20.32-58.073 54.53-112.541-.9-.436-54.53 112.541.9.436Z"/><path fill="#BA8C4E" fill-opacity=".51" d="m959.496 689.991.472-.164.068.196-.09.186-.45-.218Zm-20.297-58.455-.472.164-.068-.196.09-.186.45.218Zm36.741-75.826-.45-.218.09-.186.196-.068.164.472Zm58.46-20.296.45.218-.1.186-.19.068-.16-.472Zm53.36-110.141a2.662 2.662 0 0 1-1.23-3.563 2.662 2.662 0 0 1 3.56-1.237 2.675 2.675 0 0 1 1.24 3.563 2.677 2.677 0 0 1-3.57 1.237ZM896.135 819.608l62.911-129.835.9.436-62.911 129.835-.9-.436Zm62.888-129.453L938.727 631.7l.944-.328 20.297 58.455-.945.328Zm-20.274-58.837 36.741-75.826.9.437-36.741 75.825-.9-.436Zm37.027-76.08 58.454-20.297.33.945-58.456 20.297-.328-.945Zm58.174-20.042 54.53-112.541.9.436-54.53 112.541-.9-.436Z"/><path fill="#BA8C4E" fill-opacity=".51" d="m1032.28 569.604.5-.066.02.149-.07.135-.45-.218Zm-10.37-78.936-.5.066-.02-.149.07-.135.45.218Zm55.85-115.262-.45-.218.07-.135.12-.077.26.43Zm68.38-40.777.45.218-.07.135-.13.077-.25-.43Zm81.73-168.674a2.666 2.666 0 1 1 3.56-1.237 2.665 2.665 0 0 1-3.56 1.237ZM936.203 766.748l95.627-197.362.9.436-95.627 197.362-.9-.436Zm95.587-197.079-10.38-78.935 1-.131 10.37 78.935-.99.131Zm-10.33-79.219 55.85-115.262.9.436-55.85 115.262-.9-.436Zm56.04-115.474 68.38-40.776.51.859-68.37 40.776-.52-.859Zm68.19-40.565 82.89-171.074.9.436-82.89 171.074-.9-.436ZM1074.78 533.627l.47-.164.07.195-.09.187-.45-.218Zm-20.3-58.456-.47.164-.07-.195.09-.187.45.218Zm36.74-75.825-.45-.218.09-.186.2-.068.16.472Zm58.46-20.297.45.218-.09.187-.2.068-.16-.473Zm53.36-110.141a2.661 2.661 0 0 1-1.23-3.562 2.66 2.66 0 0 1 3.56-1.237 2.665 2.665 0 0 1 1.24 3.562 2.676 2.676 0 0 1-3.57 1.237Zm-191.62 394.335 62.91-129.834.9.436-62.91 129.834-.9-.436Zm62.88-129.452-20.29-58.456.94-.328 20.3 58.456-.95.328Zm-20.27-58.838 36.74-75.825.9.436-36.74 75.825-.9-.436Zm37.03-76.079 58.45-20.297.33.945-58.46 20.296-.32-.944Zm58.17-20.043 54.53-112.541.9.436-54.53 112.541-.9-.436Z"/><path fill="#BA8C4E" fill-opacity=".51" d="m969.681 694.927-.164-.473-.195.068-.091.187.45.218Zm58.459-20.297.16.472.2-.068.09-.186-.45-.218Zm36.74-75.825.45.218.09-.187-.07-.195-.47.164Zm-20.3-58.456-.45-.218-.09.186.07.196.47-.164Zm53.37-110.141a2.665 2.665 0 1 0 2.32-4.8 2.665 2.665 0 1 0-2.32 4.8ZM907.221 824.979l62.91-129.834-.9-.436-62.91 129.834.9.436Zm62.624-129.58 58.455-20.297-.33-.944-58.453 20.296.328.945Zm58.745-20.551 36.74-75.825-.9-.437-36.74 75.826.9.436Zm36.76-76.207-20.3-58.456-.94.328 20.3 58.456.94-.328Zm-20.32-58.074 54.53-112.541-.9-.436-54.53 112.541.9.436Z"/><path fill="#BA8C4E" fill-opacity=".51" d="m1019.06 563.195-.26-.43-.13.077-.06.135.45.218Zm68.38-40.776.25.429.13-.077.07-.134-.45-.218Zm55.85-115.263.45.218.06-.135-.02-.148-.49.065Zm-10.38-78.935-.45-.218-.06.134.02.149.49-.065Zm81.73-168.675c1.33.642 2.92.089 3.56-1.237.65-1.325.09-2.92-1.23-3.562a2.675 2.675 0 0 0-3.57 1.237 2.674 2.674 0 0 0 1.24 3.562ZM923.876 760.775l95.634-197.362-.9-.436-95.634 197.362.9.436Zm95.434-197.151 68.38-40.776-.51-.859-68.38 40.776.51.859Zm68.58-40.987 55.85-115.263-.9-.436-55.85 115.262.9.437Zm55.89-115.546-10.37-78.936-.99.131 10.37 78.935.99-.13Zm-10.42-78.652 82.89-171.075-.9-.436-82.89 171.075.9.436Z"/><path fill="#BA8C4E" d="m986.101 596.658-.656-1.889-.783.272-.361.745 1.8.872Zm49.619-17.227.65 1.89.78-.272.37-.745-1.8-.873Zm31.18-64.357 1.8.873.36-.746-.27-.783-1.89.656Zm-17.23-49.614-1.8-.872-.36.746.27.782 1.89-.656Zm41.63-85.92c5.31 2.569 11.69.354 14.25-4.948 2.57-5.301.36-11.681-4.94-14.25-5.3-2.569-11.69-.354-14.25 4.948-2.57 5.301-.36 11.681 4.94 14.25ZM934.506 707.728l53.395-110.198-3.6-1.744-53.395 110.197 3.6 1.745Zm52.251-109.18 49.613-17.227-1.31-3.779-49.615 17.227 1.312 3.779Zm50.763-18.244 31.18-64.357-3.6-1.745-31.18 64.357 3.6 1.745Zm31.27-65.886-17.23-49.614-3.78 1.312 17.23 49.615 3.78-1.313Zm-17.32-48.086 46.29-95.519-3.6-1.744-46.29 95.519 3.6 1.744Z"/><path fill="#BA8C4E" d="m933.935 751.506 1.889-.656.272.783-.361.746-1.8-.873Zm-17.227-49.614-1.889.656-.272-.782.361-.746 1.8.872Zm31.184-64.357-1.8-.872.361-.745.783-.272.656 1.889Zm49.614-17.226 1.8.872-.362.745-.782.272-.656-1.889Zm41.634-85.921c-5.3-2.568-7.52-8.949-4.95-14.25 2.57-5.301 8.95-7.517 14.25-4.948 5.3 2.569 7.52 8.949 4.95 14.25-2.57 5.302-8.95 7.517-14.25 4.948Zm-160.4 326.444 53.395-110.198 3.6 1.745-53.396 110.197-3.599-1.744Zm53.305-108.67-17.226-49.614 3.778-1.312 17.227 49.614-3.779 1.312Zm-17.137-51.142 31.184-64.357 3.6 1.744-31.184 64.357-3.6-1.744Zm32.328-65.374 49.614-17.227 1.312 3.779-49.614 17.227-1.312-3.779Zm48.47-16.21 46.284-95.519 3.6 1.744-46.284 95.52-3.6-1.745Z"/><path fill="#BA8C4E" d="m995.713 649.327 1.983-.261.078.594-.261.539-1.8-.872Zm-8.804-66.996-1.983.26-.078-.593.261-.539 1.8.872Zm47.401-97.83-1.8-.872.26-.539.52-.307 1.02 1.718Zm58.04-34.609 1.8.872-.26.539-.52.307-1.02-1.718Zm65.7-135.6c-5.3-2.569-7.51-8.949-4.95-14.251 2.57-5.301 8.95-7.516 14.25-4.948 5.31 2.569 7.52 8.949 4.95 14.251-2.57 5.301-8.95 7.517-14.25 4.948ZM912.747 815.967l81.167-167.512 3.599 1.744-81.166 167.512-3.6-1.744Zm80.983-166.379-8.804-66.997 3.966-.521 8.804 66.996-3.966.522Zm-8.621-68.129 47.401-97.83 3.6 1.744-47.401 97.83-3.6-1.744Zm48.181-98.676 58.03-34.609 2.05 3.436-58.03 34.609-2.05-3.436Zm57.26-33.763 70.35-145.199 3.6 1.744-70.35 145.199-3.6-1.744Z"/><path fill="#BA8C4E" fill-opacity=".51" d="m1081.92 442.862.47-.164.07.196-.09.186-.45-.218Zm-20.3-58.455-.47.164-.07-.196.09-.186.45.218Zm36.74-75.825-.45-.218.09-.187.2-.068.16.473Zm58.46-20.297.45.218-.09.186-.2.068-.16-.472Zm53.36-110.141a2.662 2.662 0 0 1-1.23-3.563 2.662 2.662 0 0 1 3.56-1.237 2.666 2.666 0 0 1 1.24 3.563 2.677 2.677 0 0 1-3.57 1.237Zm-191.62 394.335 62.91-129.835.9.436-62.91 129.835-.9-.436Zm62.88-129.453-20.29-58.455.94-.328 20.3 58.455-.95.328Zm-20.27-58.837 36.74-75.825.9.436-36.74 75.825-.9-.436Zm37.03-76.08 58.45-20.296.33.944-58.46 20.297-.32-.945Zm58.17-20.042 54.53-112.541.9.436-54.53 112.541-.9-.436Z"/><path fill="#BA8C4E" fill-opacity=".51" d="m976.822 604.163-.164-.473-.196.068-.09.187.45.218Zm58.458-20.297.16.472.2-.068.09-.186-.45-.218Zm36.74-75.825.45.218.09-.187-.07-.195-.47.164Zm-20.3-58.456-.45-.218-.09.187.07.195.47-.164Zm53.37-110.141c1.32.642 2.92.088 3.56-1.237a2.67 2.67 0 0 0-1.23-3.562 2.672 2.672 0 0 0-3.57 1.237 2.665 2.665 0 0 0 1.24 3.562ZM914.362 734.215l62.91-129.834-.9-.436-62.91 129.834.9.436Zm62.624-129.58 58.454-20.297-.33-.944-58.452 20.296.328.945Zm58.744-20.551 36.74-75.825-.9-.436-36.74 75.825.9.436Zm36.76-76.207-20.3-58.456-.94.328 20.3 58.456.94-.328Zm-20.32-58.074 54.53-112.541-.9-.436-54.53 112.541.9.436Z"/><path fill="#BA8C4E" fill-opacity=".51" d="m1026.2 472.43-.26-.429-.13.077-.06.134.45.218Zm68.38-40.776.25.43.13-.077.07-.135-.45-.218Zm55.85-115.263.45.218.06-.134-.02-.149-.49.065Zm-10.38-78.935-.45-.218-.06.135.02.148.49-.065Zm81.73-168.674c1.33.642 2.92.088 3.56-1.237a2.662 2.662 0 1 0-4.79-2.326 2.662 2.662 0 0 0 1.23 3.563ZM931.016 670.01l95.634-197.362-.9-.437-95.634 197.363.9.436Zm95.434-197.151 68.38-40.776-.51-.859-68.38 40.776.51.859Zm68.58-40.988 55.85-115.263-.9-.436-55.85 115.263.9.436Zm55.89-115.546-10.37-78.935-.99.13 10.37 78.935.99-.13Zm-10.42-78.652L1223.39 66.6l-.9-.436-82.89 171.074.9.436ZM1092.1 447.798l-.16-.473-.2.068-.09.187.45.218Zm58.46-20.297.16.472.2-.068.09-.186-.45-.218Zm36.74-75.825.45.218.09-.187-.07-.195-.47.164ZM1167 293.22l-.45-.218-.09.187.07.195.47-.164Zm53.37-110.141c1.33.642 2.92.089 3.56-1.237a2.67 2.67 0 0 0-1.23-3.562 2.675 2.675 0 0 0-3.57 1.237 2.665 2.665 0 0 0 1.24 3.562ZM1029.64 577.85l62.91-129.834-.9-.436-62.91 129.834.9.436Zm62.63-129.58 58.45-20.297-.33-.944-58.45 20.296.33.945Zm58.74-20.551 36.74-75.825-.9-.436-36.74 75.825.9.436Zm36.76-76.207-20.3-58.456-.94.328 20.3 58.456.94-.328Zm-20.32-58.074 54.53-112.541-.9-.436-54.53 112.541.9.436Z"/><path fill="#BA8C4E" fill-opacity=".51" d="m1030.64 630.24.47-.164.07.195-.09.187-.45-.218Zm-20.3-58.456-.47.164-.07-.195.09-.187.45.218Zm36.74-75.825-.45-.218.09-.186.2-.068.16.472Zm58.46-20.297.45.218-.09.187-.2.068-.16-.473Zm53.37-110.141a2.665 2.665 0 1 1 2.32-4.799 2.665 2.665 0 1 1-2.32 4.799ZM967.28 759.856l62.91-129.834.9.436-62.91 129.834-.9-.436Zm62.89-129.452-20.3-58.456.95-.328 20.29 58.456-.94.328Zm-20.28-58.838 36.74-75.825.9.436-36.74 75.825-.9-.436Zm37.03-76.079 58.46-20.297.32.945-58.45 20.296-.33-.944Zm58.17-20.043 54.53-112.541.9.437-54.53 112.54-.9-.436Z"/><path fill="#BA8C4E" fill-opacity=".51" d="m1103.43 509.853.49-.066.02.149-.06.135-.45-.218Zm-10.38-78.936-.49.066-.02-.149.06-.135.45.218Zm55.85-115.262-.45-.218.07-.135.13-.077.25.43Zm68.38-40.777.45.218-.06.135-.13.077-.26-.43Zm81.73-168.674a2.662 2.662 0 0 1-1.23-3.563 2.662 2.662 0 0 1 3.56-1.237 2.675 2.675 0 0 1 1.24 3.563 2.677 2.677 0 0 1-3.57 1.237Zm-291.66 600.793 95.63-197.362.9.436-95.63 197.362-.9-.436Zm95.58-197.079-10.37-78.935.99-.131 10.37 78.935-.99.131Zm-10.33-79.219 55.85-115.262.9.436-55.85 115.263-.9-.437Zm56.05-115.474 68.38-40.776.51.859-68.38 40.776-.51-.859Zm68.18-40.565 82.9-171.074.9.436-82.9 171.074-.9-.436ZM1145.92 473.875l.47-.164.07.196-.09.186-.45-.218Zm-20.3-58.455-.47.164-.07-.196.09-.186.45.218Zm36.75-75.825-.45-.219.09-.186.19-.068.17.473Zm58.45-20.297.45.218-.09.186-.2.068-.16-.472Zm53.37-110.141a2.666 2.666 0 1 1 3.56-1.237 2.665 2.665 0 0 1-3.56 1.237Zm-191.63 394.335 62.91-129.835.9.436-62.91 129.835-.9-.436Zm62.89-129.453-20.3-58.455.95-.328 20.29 58.455-.94.328Zm-20.28-58.837 36.75-75.826.9.437-36.75 75.825-.9-.436Zm37.03-76.08 58.46-20.296.32.944-58.45 20.297-.33-.945Zm58.17-20.042 54.53-112.541.9.436-54.53 112.541-.9-.436Z"/><path fill="#BA8C4E" fill-opacity=".51" d="m1040.83 635.176-.17-.473-.19.068-.09.187.45.218Zm58.45-20.297.17.472.19-.068.09-.186-.45-.218Zm36.74-75.825.45.218.09-.187-.07-.195-.47.164Zm-20.29-58.456-.45-.218-.09.187.06.195.48-.164Zm53.36-110.141c1.33.642 2.92.088 3.57-1.237.64-1.325.08-2.92-1.24-3.563a2.662 2.662 0 0 0-3.56 1.237 2.662 2.662 0 0 0 1.23 3.563ZM978.366 765.228l62.914-129.834-.9-.436-62.914 129.834.9.436Zm62.624-129.58 58.46-20.297-.33-.944-58.46 20.296.33.945Zm58.74-20.551 36.74-75.825-.9-.436-36.74 75.825.9.436Zm36.76-76.207-20.29-58.456-.95.328 20.3 58.456.94-.328Zm-20.31-58.074 54.53-112.541-.9-.436-54.53 112.541.9.436Z"/><path fill="#BA8C4E" fill-opacity=".51" d="m1090.2 503.443-.26-.429-.12.077-.07.134.45.218Zm68.38-40.776.26.429.12-.076.07-.135-.45-.218Zm55.85-115.263.45.218.06-.134-.01-.149-.5.065Zm-10.37-78.935-.45-.218-.07.135.02.148.5-.065Zm81.73-168.674a2.665 2.665 0 1 0 2.32-4.8 2.665 2.665 0 1 0-2.32 4.8ZM995.021 701.024l95.629-197.363-.9-.436-95.629 197.363.9.436Zm95.439-197.151 68.38-40.777-.52-.858-68.38 40.776.52.859Zm68.57-40.988 55.85-115.263-.9-.436-55.85 115.263.9.436Zm55.9-115.546-10.38-78.935-.99.13 10.37 78.935 1-.13Zm-10.42-78.652 82.89-171.074-.9-.436-82.89 171.074.9.436Z"/><path fill="#BA8C4E" d="m867.341 605.712-.656-1.889-.783.272-.361.745 1.8.872Zm41.35-14.357.656 1.889.783-.272.361-.745-1.8-.872Zm25.99-53.637 1.799.872.362-.746-.272-.782-1.889.656Zm-14.358-41.35-1.8-.873-.361.746.272.783 1.889-.656Zm33.923-70.01c5.301 2.569 11.681.353 14.25-4.948 2.569-5.302.354-11.682-4.948-14.251-5.301-2.568-11.681-.353-14.25 4.948-2.569 5.302-.354 11.682 4.948 14.251ZM824.639 698.426l44.502-91.842-3.6-1.744-44.501 91.842 3.599 1.744Zm43.358-90.824 41.35-14.358-1.312-3.779-41.35 14.358 1.312 3.779Zm42.494-15.375 25.989-53.637-3.599-1.745-25.99 53.638 3.6 1.744Zm26.079-55.165-14.357-41.35-3.779 1.312 14.357 41.35 3.779-1.312Zm-14.447-39.822 38.574-79.609-3.6-1.745-38.574 79.609 3.6 1.745Z"/><path fill="#BA8C4E" d="m823.864 734.768 1.889-.656.272.782-.361.746-1.8-.872Zm-14.357-41.35-1.89.656-.272-.783.362-.745 1.8.872Zm25.989-53.637-1.8-.873.361-.745.783-.272.656 1.89Zm41.35-14.358 1.8.872-.361.746-.783.272-.656-1.89Zm33.923-70.01c-5.302-2.568-7.517-8.948-4.948-14.25 2.569-5.301 8.949-7.517 14.25-4.948 5.302 2.569 7.517 8.949 4.948 14.25-2.569 5.302-8.949 7.517-14.25 4.948ZM777.563 825.738l44.501-91.842 3.6 1.744-44.502 91.842-3.599-1.744Zm44.412-90.314-14.358-41.35 3.779-1.312 14.357 41.35-3.778 1.312Zm-14.268-42.878 25.989-53.638 3.6 1.745-25.99 53.637-3.599-1.744Zm27.133-54.655 41.35-14.357 1.312 3.779-41.35 14.357-1.312-3.779Zm40.206-13.34 38.574-79.609 3.6 1.744-38.574 79.609-3.6-1.744Z"/><path fill="#BA8C4E" d="m875.352 649.608 1.983-.261.078.594-.261.539-1.8-.872Zm-7.337-55.837-1.983.261-.078-.594.261-.539 1.8.872Zm39.506-81.534-1.799-.872.261-.539.514-.307 1.024 1.718Zm48.37-28.845 1.8.873-.261.538-.515.307-1.024-1.718Zm53.989-111.415c-5.31-2.568-7.52-8.948-4.95-14.25 2.57-5.301 8.95-7.517 14.25-4.948 5.3 2.569 7.52 8.949 4.95 14.251-2.57 5.301-8.95 7.516-14.25 4.947ZM805.906 788.346l67.647-139.61 3.599 1.744-67.647 139.61-3.599-1.744Zm67.463-138.477-7.337-55.837 3.966-.521 7.337 55.836-3.966.522Zm-7.154-56.97 39.507-81.534 3.599 1.744-39.507 81.534-3.599-1.744Zm40.282-82.38 48.37-28.844 2.048 3.435-48.369 28.845-2.049-3.436Zm47.594-27.999 58.639-121.014 3.6 1.744-58.639 121.015-3.6-1.745Z"/><path fill="#BA8C4E" fill-opacity=".51" d="m978.106 430.458.472-.164.068.195-.09.187-.45-.218Zm-20.297-58.456-.472.164-.068-.195.091-.187.449.218Zm36.741-75.825-.45-.218.091-.187.195-.068.164.473Zm58.46-20.297.45.218-.09.187-.2.067-.16-.472Zm53.36-110.141a2.662 2.662 0 0 1-1.23-3.563 2.662 2.662 0 0 1 3.56-1.237 2.675 2.675 0 0 1 1.24 3.563 2.677 2.677 0 0 1-3.57 1.237ZM914.746 560.074l62.91-129.834.9.436-62.91 129.834-.9-.436Zm62.888-129.452-20.297-58.456.945-.328 20.296 58.456-.944.328Zm-20.274-58.838 36.74-75.825.9.436-36.741 75.825-.899-.436Zm37.026-76.08 58.454-20.296.33.944-58.456 20.297-.328-.945Zm58.174-20.042 54.53-112.541.9.436-54.53 112.541-.9-.436Z"/><path fill="#BA8C4E" fill-opacity=".51" d="m873.011 591.757-.164-.472-.196.068-.09.186.45.218Zm58.455-20.296.164.472.196-.068.09-.186-.45-.218Zm36.741-75.826.45.218.09-.186-.068-.196-.472.164ZM947.91 437.18l-.45-.218-.09.186.068.196.472-.164Zm53.37-110.141a2.665 2.665 0 1 0 2.32-4.8 2.665 2.665 0 1 0-2.32 4.8ZM810.551 721.81l62.91-129.835-.9-.436-62.91 129.835.9.436Zm62.624-129.58 58.455-20.297-.328-.945-58.455 20.297.328.945Zm58.741-20.551 36.741-75.826-.9-.436-36.741 75.826.9.436Zm36.763-76.208-20.296-58.455-.945.328 20.297 58.455.944-.328Zm-20.319-58.073 54.53-112.541-.9-.436-54.53 112.541.9.436Z"/><path fill="#BA8C4E" fill-opacity=".51" d="m922.386 460.026-.256-.429-.128.076-.066.135.45.218Zm68.379-40.776.256.429.129-.077.065-.134-.45-.218Zm55.845-115.263.45.218.07-.135-.02-.148-.5.065Zm-10.37-78.935-.45-.218-.06.134.02.149.49-.065Zm81.73-168.675c1.33.642 2.92.089 3.56-1.237.65-1.325.09-2.92-1.23-3.562a2.676 2.676 0 0 0-3.57 1.237 2.674 2.674 0 0 0 1.24 3.562ZM827.206 657.606l95.63-197.362-.9-.436-95.63 197.362.9.436Zm95.436-197.151 68.379-40.776-.512-.859-68.379 40.777.512.858Zm68.573-40.987 55.845-115.263-.9-.436-55.845 115.263.9.436Zm55.895-115.546-10.37-78.935-.99.13 10.37 78.935.99-.13Zm-10.42-78.652 82.89-171.075-.9-.436-82.89 171.075.9.436ZM988.292 435.393l-.164-.472-.195.068-.091.186.45.218Zm58.458-20.297.16.473.2-.068.09-.186-.45-.219Zm36.74-75.825.45.218.09-.186-.07-.196-.47.164Zm-20.3-58.455-.45-.218-.09.186.07.196.47-.164Zm53.37-110.141c1.33.642 2.92.088 3.56-1.237a2.67 2.67 0 0 0-1.23-3.563 2.667 2.667 0 1 0-2.33 4.8ZM925.832 565.446l62.91-129.835-.9-.436-62.91 129.835.9.436Zm62.624-129.581 58.454-20.296-.33-.945-58.452 20.297.328.944Zm58.744-20.55 36.74-75.826-.9-.436-36.74 75.825.9.437Zm36.76-76.208-20.3-58.455-.94.328 20.3 58.455.94-.328Zm-20.32-58.073 54.53-112.541-.9-.436-54.53 112.541.9.436Z"/><path fill="#BA8C4E" fill-opacity=".51" d="m926.829 617.835.473-.164.068.196-.091.186-.45-.218Zm-20.296-58.455-.473.164-.068-.196.091-.186.45.218Zm36.74-75.826-.45-.218.091-.186.195-.068.164.472Zm58.457-20.296.45.218-.09.186-.2.068-.16-.472Zm53.37-110.142a2.665 2.665 0 1 1 2.32-4.799 2.665 2.665 0 1 1-2.32 4.799ZM863.469 747.451l62.91-129.834.9.436-62.91 129.834-.9-.436Zm62.888-129.452-20.297-58.455.945-.328 20.297 58.455-.945.328Zm-20.274-58.837 36.74-75.826.9.436-36.74 75.826-.9-.436Zm37.026-76.08 58.451-20.297.33.945-58.453 20.297-.328-.945Zm58.171-20.042 54.53-112.541.9.436-54.53 112.541-.9-.436Z"/><path fill="#BA8C4E" fill-opacity=".51" d="m999.617 497.448.493-.065.02.148-.06.135-.453-.218Zm-10.373-78.935-.496.065-.019-.149.065-.134.45.218Zm55.846-115.263-.45-.218.07-.135.13-.077.25.43Zm68.38-40.776.45.218-.06.134-.13.077-.26-.429Zm81.73-168.675a2.662 2.662 0 0 1-1.23-3.563 2.662 2.662 0 1 1 4.79 2.326 2.662 2.662 0 0 1-3.56 1.237ZM903.537 694.592l95.63-197.362.903.436-95.633 197.362-.9-.436Zm95.585-197.079-10.374-78.935.992-.13 10.37 78.935-.988.13Zm-10.328-79.218 55.846-115.263.9.436-55.846 115.263-.9-.436Zm56.046-115.475 68.38-40.776.51.859-68.38 40.776-.51-.859Zm68.18-40.564 82.9-171.075.9.436-82.9 171.075-.9-.436ZM1042.11 461.471l.47-.164.07.195-.09.187-.45-.218Zm-20.3-58.456-.47.164-.07-.195.09-.187.45.218Zm36.74-75.825-.45-.218.09-.187.2-.068.16.473Zm58.46-20.297.45.218-.09.186-.2.068-.16-.472Zm53.37-110.141a2.666 2.666 0 1 1 3.56-1.237 2.665 2.665 0 0 1-3.56 1.237ZM978.75 591.087l62.91-129.835.9.437-62.91 129.834-.9-.436Zm62.89-129.452-20.3-58.456.95-.328 20.29 58.456-.94.328Zm-20.28-58.838 36.74-75.825.9.436-36.74 75.825-.9-.436Zm37.03-76.08 58.46-20.296.32.944-58.45 20.297-.33-.945Zm58.17-20.042 54.53-112.541.9.436-54.53 112.541-.9-.436Z"/><path fill="#BA8C4E" fill-opacity=".51" d="m937.016 622.771-.164-.472-.196.068-.09.186.45.218Zm58.455-20.297.164.473.196-.068.09-.187-.45-.218Zm36.739-75.825.45.218.09-.186-.07-.196-.47.164Zm-20.3-58.455-.44-.218-.1.186.07.196.47-.164Zm53.37-110.141c1.33.642 2.92.088 3.57-1.237a2.675 2.675 0 0 0-1.24-3.563 2.662 2.662 0 0 0-3.56 1.237 2.663 2.663 0 0 0 1.23 3.563Zm-190.725 394.77 62.911-129.834-.9-.436-62.911 129.834.9.436Zm62.625-129.58 58.455-20.296-.328-.945-58.455 20.297.328.944Zm58.741-20.551 36.739-75.825-.9-.436-36.739 75.825.9.436Zm36.759-76.207-20.29-58.455-.95.328 20.3 58.455.94-.328Zm-20.32-58.073 54.54-112.541-.9-.436-54.53 112.541.89.436Z"/><path fill="#BA8C4E" fill-opacity=".51" d="m986.39 491.039-.256-.43-.128.077-.066.135.45.218Zm68.38-40.777.26.43.12-.077.07-.134-.45-.219ZM1110.62 335l.45.218.06-.135-.02-.148-.49.065Zm-10.37-78.935-.45-.218-.07.134.02.149.5-.065Zm81.73-168.675a2.665 2.665 0 1 0 2.32-4.8 2.665 2.665 0 1 0-2.32 4.8ZM891.21 688.62l95.63-197.362-.9-.436-95.63 197.362.9.436Zm95.436-197.151 68.384-40.776-.52-.859-68.376 40.776.512.859Zm68.574-40.987 55.85-115.263-.9-.436-55.85 115.262.9.437Zm55.89-115.546-10.37-78.936-.99.131 10.37 78.935.99-.13Zm-10.41-78.652 82.89-171.075-.9-.436-82.89 171.075.9.436Z"/><path fill="#BA8C4E" d="m602.155 596.31.656-1.89.782.272.362.746-1.8.872Zm-72.76-25.264-.656 1.89-.782-.272-.362-.746 1.8-.872Zm-45.731-94.38-1.8.873-.361-.746.272-.783 1.889.656Zm25.263-72.759 1.8-.872.361.745-.271.783-1.89-.656Zm-63.223-130.48c-5.301 2.568-11.682.353-14.25-4.948-2.569-5.302-.354-11.682 4.948-14.251 5.301-2.569 11.681-.353 14.25 4.948 2.569 5.302.353 11.682-4.948 14.251Zm232.955 485.36-78.304-161.605 3.6-1.744 78.304 161.604-3.6 1.745Zm-77.16-160.588-72.76-25.263 1.312-3.779 72.76 25.263-1.312 3.779Zm-73.904-26.281-45.731-94.379 3.6-1.745 45.731 94.38-3.6 1.744Zm-45.82-95.908 25.263-72.759 3.779 1.312-25.263 72.759-3.779-1.312Zm25.353-71.231-67.875-140.08 3.6-1.744 67.874 140.08-3.599 1.744Z"/><path fill="#BA8C4E" d="m678.657 823.395-1.889-.656-.272.783.361.745 1.8-.872Zm25.263-72.759 1.89.656.271-.783-.361-.745-1.8.872Zm-45.731-94.38 1.8-.872-.361-.746-.783-.272-.656 1.89Zm-72.759-25.264-1.8.873.361.745.783.272.656-1.89Zm-63.224-130.48c5.302-2.569 7.517-8.949 4.948-14.25-2.569-5.302-8.949-7.517-14.25-4.948-5.302 2.568-7.517 8.949-4.948 14.25s8.949 7.517 14.25 4.948Zm236.555 483.616-78.304-161.605-3.6 1.744 78.305 161.605 3.599-1.744Zm-78.215-160.077 25.264-72.759-3.779-1.312-25.263 72.759 3.778 1.312Zm25.174-74.287-45.731-94.38-3.6 1.744 45.731 94.38 3.6-1.744Zm-46.875-95.398-72.759-25.263-1.312 3.779 72.759 25.263 1.312-3.779Zm-71.616-24.246-67.874-140.079-3.6 1.744 67.875 140.08 3.599-1.745Z"/><path fill="#BA8C4E" d="m588.058 673.549-1.983-.261-.078.594.261.539 1.8-.872Zm12.911-98.251 1.983.261.078-.594-.261-.539-1.8.872Zm-69.516-143.467 1.8-.873-.261-.538-.515-.307-1.024 1.718Zm-85.111-50.755-1.8.872.261.539.515.307 1.024-1.718Zm-98.525-203.337c5.301-2.569 7.516-8.949 4.948-14.25-2.569-5.302-8.949-7.517-14.251-4.948-5.301 2.569-7.517 8.949-4.948 14.25 2.569 5.302 8.949 7.517 14.251 4.948Zm361.072 740.594L589.857 672.677l-3.599 1.744 119.031 245.657 3.6-1.745ZM590.041 673.809l12.911-98.25-3.966-.521-12.911 98.25 3.966.521Zm12.728-99.383-69.516-143.468-3.6 1.745 69.516 143.467 3.6-1.744Zm-70.292-144.313-85.111-50.755-2.048 3.436 85.111 50.754 2.048-3.435Zm-84.335-49.909L344.965 167.268l-3.599 1.744 103.176 212.936 3.6-1.744Z"/><path fill="#BA8C4E" fill-opacity=".51" d="m548.207 502.614-.472-.164-.068.195.09.187.45-.218Zm20.297-58.456.472.164.068-.195-.09-.187-.45.218Zm-36.741-75.825.45-.218-.09-.186-.196-.068-.164.472Zm-58.455-20.297-.45.218.09.187.196.068.164-.473ZM419.94 237.895a2.667 2.667 0 1 0-2.326-4.8 2.667 2.667 0 0 0 2.326 4.8ZM611.567 632.23l-62.91-129.834-.9.436 62.91 129.834.9-.436Zm-62.888-129.452 20.297-58.456-.945-.328-20.296 58.456.944.328Zm20.275-58.838-36.741-75.825-.9.436 36.741 75.825.9-.436Zm-37.027-76.079-58.455-20.297-.328.945 58.455 20.296.328-.944Zm-58.169-20.043-54.531-112.541-.9.437 54.531 112.54.9-.436Z"/><path fill="#BA8C4E" fill-opacity=".51" d="m653.302 663.914.164-.473.196.068.09.187-.45.218Zm-58.455-20.297-.164.472-.196-.068-.09-.186.45-.218Zm-36.741-75.825-.45.218-.09-.187.068-.195.472.164Zm20.297-58.456.45-.218.09.187-.068.195-.472-.164Zm-53.368-110.141a2.667 2.667 0 1 1-2.326-4.801 2.667 2.667 0 0 1 2.326 4.801Zm190.728 394.771-62.911-129.834.9-.436 62.911 129.834-.9.436Zm-62.625-129.58-58.455-20.297.328-.944 58.455 20.296-.328.945Zm-58.741-20.551-36.741-75.825.9-.436 36.741 75.825-.9.436Zm-36.763-76.207 20.297-58.456.944.328-20.296 58.456-.945-.328Zm20.319-58.074-54.531-112.541.9-.436 54.531 112.541-.9.436Z"/><path fill="#BA8C4E" fill-opacity=".51" d="m603.928 532.181.256-.429.128.077.066.134-.45.218Zm-68.379-40.776-.256.43-.129-.077-.065-.135.45-.218Zm-55.85-115.263-.45.218-.065-.134.019-.149.496.065Zm10.374-78.935.449-.218.066.135-.02.148-.495-.065Zm-81.73-168.674a2.667 2.667 0 1 1-2.326-4.801 2.667 2.667 0 0 1 2.326 4.801Zm290.765 601.229-95.63-197.363.9-.436 95.63 197.363-.9.436Zm-95.436-197.151-68.379-40.776.512-.859 68.379 40.776-.512.859Zm-68.573-40.988-55.85-115.263.9-.436 55.85 115.263-.9.436Zm-55.896-115.546 10.374-78.935.991.13-10.373 78.935-.992-.13Zm10.42-78.652L406.73 126.351l.9-.436 82.892 171.074-.899.436ZM538.021 507.549l.164-.472.196.068.09.186-.45.218Zm-58.455-20.297-.164.473-.196-.068-.09-.186.45-.219Zm-36.741-75.825-.45.218-.09-.186.068-.196.472.164Zm20.297-58.455.45-.218.09.186-.068.196-.472-.164Zm-53.368-110.141a2.667 2.667 0 1 1-2.326-4.801 2.667 2.667 0 0 1 2.326 4.801Zm190.727 394.771-62.91-129.835.9-.436 62.91 129.835-.9.436Zm-62.624-129.581-58.455-20.296.328-.945 58.455 20.297-.328.944Zm-58.741-20.55-36.741-75.826.9-.436 36.741 75.825-.9.437Zm-36.763-76.208 20.296-58.455.945.328-20.297 58.455-.944-.328Zm20.319-58.073-54.531-112.541.9-.436 54.531 112.541-.9.436Z"/><path fill="#BA8C4E" fill-opacity=".51" d="m599.484 689.991-.473-.164-.068.196.091.186.45-.218Zm20.296-58.455.473.164.068-.196-.091-.186-.45.218Zm-36.74-75.826.45-.218-.091-.186-.195-.068-.164.472Zm-58.456-20.296-.45.218.091.186.195.068.164-.472Zm-53.368-110.141a2.667 2.667 0 1 0-2.325-4.8 2.667 2.667 0 0 0 2.325 4.8Zm191.628 394.335-62.91-129.835-.9.436 62.91 129.835.9-.436Zm-62.888-129.453 20.297-58.455-.945-.328-20.297 58.455.945.328Zm20.274-58.837-36.74-75.826-.9.437 36.74 75.825.9-.436Zm-37.026-76.08-58.456-20.297-.328.945 58.456 20.297.328-.945Zm-58.17-20.042-54.531-112.541-.9.436 54.531 112.541.9-.436Z"/><path fill="#BA8C4E" fill-opacity=".51" d="m526.696 569.604-.496-.066-.019.149.065.135.45-.218Zm10.373-78.936.496.066.02-.149-.066-.135-.45.218ZM481.22 375.406l.449-.218-.065-.135-.128-.077-.256.43Zm-68.379-40.777-.45.218.065.135.129.077.256-.43Zm-81.73-168.674a2.667 2.667 0 1 0-2.327-4.8 2.667 2.667 0 0 0 2.327 4.8Zm291.665 600.793-95.63-197.362-.9.436 95.63 197.362.9-.436Zm-95.584-197.079 10.373-78.935-.991-.131-10.374 78.935.992.131Zm10.327-79.219-55.85-115.262-.899.436 55.849 115.262.9-.436Zm-56.043-115.474L413.097 334.2l-.512.859 68.378 40.776.513-.859Zm-68.185-40.565-82.893-171.074-.9.436 82.893 171.074.9-.436ZM484.203 533.627l-.472-.164-.068.195.09.187.45-.218Zm20.297-58.456.472.164.068-.195-.09-.187-.45.218Zm-36.741-75.825.45-.218-.09-.186-.196-.068-.164.472Zm-58.455-20.297-.45.218.09.187.196.068.164-.473Zm-53.369-110.141a2.665 2.665 0 0 0 1.237-3.562 2.666 2.666 0 1 0-1.237 3.562Zm191.628 394.335-62.91-129.834-.9.436 62.91 129.834.9-.436Zm-62.888-129.452 20.297-58.456-.945-.328-20.296 58.456.944.328Zm20.275-58.838-36.741-75.825-.9.436 36.741 75.825.9-.436Zm-37.027-76.079-58.455-20.297-.328.945 58.455 20.296.328-.944Zm-58.169-20.043L355.223 266.29l-.9.436 54.531 112.541.9-.436Z"/><path fill="#BA8C4E" fill-opacity=".51" d="m589.298 694.927.164-.473.195.068.091.187-.45.218Zm-58.456-20.297-.164.472-.195-.068-.091-.186.45-.218Zm-36.74-75.825-.45.218-.091-.187.068-.195.473.164Zm20.296-58.456.45-.218.091.186-.068.196-.473-.164ZM461.03 430.208a2.667 2.667 0 1 1-2.325-4.8 2.667 2.667 0 0 1 2.325 4.8Zm190.728 394.771-62.91-129.834.9-.436 62.91 129.834-.9.436Zm-62.624-129.58-58.456-20.297.328-.944 58.456 20.296-.328.945Zm-58.742-20.551-36.74-75.825.9-.437 36.74 75.826-.9.436Zm-36.763-76.207 20.297-58.456.945.328-20.297 58.456-.945-.328Zm20.319-58.074-54.531-112.541.9-.436 54.531 112.541-.9.436Z"/><path fill="#BA8C4E" fill-opacity=".51" d="m539.923 563.195.256-.43.128.077.066.135-.45.218Zm-68.379-40.776-.256.429-.129-.077-.065-.134.45-.218Zm-55.85-115.263-.45.218-.065-.135.02-.148.495.065Zm10.374-78.935.45-.218.065.134-.02.149-.495-.065Zm-81.73-168.675a2.667 2.667 0 1 1-2.326-4.799 2.667 2.667 0 0 1 2.326 4.799Zm290.765 601.229-95.63-197.362.9-.436 95.63 197.362-.9.436Zm-95.436-197.151-68.379-40.776.512-.859 68.379 40.776-.512.859Zm-68.573-40.987-55.85-115.263.9-.436 55.85 115.262-.9.437Zm-55.895-115.546 10.373-78.936.991.131-10.373 78.935-.991-.13Zm10.419-78.652-82.893-171.075.9-.436 82.893 171.075-.9.436Z"/><path fill="#BA8C4E" d="m572.879 596.658.656-1.889.783.272.361.745-1.8.872Zm-49.614-17.227-.656 1.89-.783-.272-.361-.745 1.8-.873Zm-31.184-64.357-1.8.873-.361-.746.272-.783 1.889.656Zm17.227-49.614 1.8-.872.361.746-.272.782-1.889-.656Zm-41.632-85.92c-5.302 2.569-11.682.354-14.25-4.948-2.569-5.301-.354-11.681 4.947-14.25 5.302-2.569 11.682-.354 14.251 4.948 2.569 5.301.353 11.681-4.948 14.25Zm156.798 328.188L571.079 597.53l3.6-1.744 53.395 110.197-3.6 1.745Zm-52.251-109.18-49.614-17.227 1.312-3.779 49.614 17.227-1.312 3.779Zm-50.758-18.244-31.184-64.357 3.6-1.745 31.184 64.357-3.6 1.745Zm-31.273-65.886 17.227-49.614 3.778 1.312-17.227 49.615-3.778-1.313Zm17.316-48.086-46.283-95.519 3.6-1.744 46.283 95.519-3.6 1.744Z"/><path fill="#BA8C4E" d="m625.045 751.506-1.89-.656-.271.783.361.746 1.8-.873Zm17.226-49.614 1.89.656.272-.782-.362-.746-1.8.872Zm-31.183-64.357 1.8-.872-.362-.745-.782-.272-.656 1.889Zm-49.614-17.226-1.8.872.361.745.783.272.656-1.889Zm-41.632-85.921c5.301-2.568 7.516-8.949 4.948-14.25-2.569-5.301-8.949-7.517-14.251-4.948-5.301 2.569-7.516 8.949-4.948 14.25 2.569 5.302 8.949 7.517 14.251 4.948ZM680.24 860.832l-53.395-110.198-3.6 1.745 53.395 110.197 3.6-1.744Zm-53.306-108.67 17.227-49.614-3.779-1.312-17.227 49.614 3.779 1.312Zm17.137-51.142-31.183-64.357-3.6 1.744 31.184 64.357 3.599-1.744Zm-32.327-65.374-49.614-17.227-1.312 3.779 49.614 17.227 1.312-3.779Zm-48.47-16.21-46.284-95.519-3.599 1.744 46.283 95.52 3.6-1.745Z"/><path fill="#BA8C4E" d="m563.266 649.327-1.983-.261-.078.594.261.539 1.8-.872Zm8.804-66.996 1.983.26.078-.593-.261-.539-1.8.872Zm-47.402-97.83 1.8-.872-.261-.539-.515-.307-1.024 1.718Zm-58.037-34.609-1.8.872.262.539.514.307 1.024-1.718Zm-65.704-135.6c5.302-2.569 7.517-8.949 4.948-14.251-2.569-5.301-8.949-7.516-14.25-4.948-5.302 2.569-7.517 8.949-4.948 14.251 2.569 5.301 8.949 7.517 14.25 4.948Zm245.305 501.675-81.166-167.512-3.6 1.744 81.167 167.512 3.599-1.744Zm-80.983-166.379 8.804-66.997-3.965-.521-8.805 66.996 3.966.522Zm8.621-68.129-47.402-97.83-3.6 1.744 47.403 97.83 3.599-1.744Zm-48.178-98.676-58.036-34.609-2.049 3.436 58.037 34.609 2.048-3.436Zm-57.261-33.763-70.355-145.199-3.6 1.744 70.355 145.199 3.6-1.744Z"/><path fill="#BA8C4E" fill-opacity=".51" d="m477.063 442.862-.473-.164-.067.196.09.186.45-.218Zm20.296-58.455.473.164.068-.196-.091-.186-.45.218Zm-36.74-75.825.45-.218-.091-.187-.195-.068-.164.473Zm-58.456-20.297-.45.218.091.186.195.068.164-.472Zm-53.368-110.141a2.666 2.666 0 1 0-2.325-4.8 2.667 2.667 0 0 0 2.325 4.8Zm191.628 394.335-62.91-129.835-.9.436 62.91 129.835.9-.436Zm-62.888-129.453 20.297-58.455-.945-.328-20.297 58.455.945.328Zm20.274-58.837-36.74-75.825-.9.436 36.74 75.825.9-.436Zm-37.026-76.08-58.456-20.296-.328.944 58.456 20.297.328-.945Zm-58.17-20.042-54.531-112.541-.899.436 54.53 112.541.9-.436Z"/><path fill="#BA8C4E" fill-opacity=".51" d="m582.158 604.163.164-.473.195.068.09.187-.449.218Zm-58.456-20.297-.164.472-.195-.068-.091-.186.45-.218Zm-36.741-75.825-.449.218-.091-.187.068-.195.472.164Zm20.297-58.456.45-.218.09.187-.068.195-.472-.164ZM453.89 339.444a2.667 2.667 0 1 1-2.326-4.799 2.667 2.667 0 0 1 2.326 4.799Zm190.728 394.771-62.91-129.834.899-.436 62.911 129.834-.9.436Zm-62.624-129.58-58.456-20.297.328-.944 58.456 20.296-.328.945Zm-58.742-20.551-36.74-75.825.899-.436 36.741 75.825-.9.436Zm-36.763-76.207 20.297-58.456.944.328-20.296 58.456-.945-.328Zm20.319-58.074-54.531-112.541.9-.436 54.531 112.541-.9.436Z"/><path fill="#BA8C4E" fill-opacity=".51" d="m532.783 472.43.256-.429.128.077.066.134-.45.218Zm-68.379-40.776-.256.43-.129-.077-.065-.135.45-.218Zm-55.85-115.263-.45.218-.065-.134.019-.149.496.065Zm10.373-78.935.45-.218.066.135-.02.148-.496-.065ZM337.198 68.782a2.667 2.667 0 1 1-2.326-4.8 2.667 2.667 0 0 1 2.326 4.8ZM627.963 670.01l-95.63-197.362.9-.437 95.63 197.363-.9.436ZM532.527 472.86l-68.379-40.776.512-.859 68.379 40.776-.512.859Zm-68.573-40.988-55.85-115.263.9-.436 55.85 115.263-.9.436Zm-55.896-115.546 10.374-78.935.991.13-10.373 78.935-.992-.13Zm10.42-78.652L335.585 66.6l.9-.436 82.892 171.074-.899.436ZM466.877 447.798l.164-.473.195.068.091.187-.45.218Zm-58.456-20.297-.164.472-.195-.068-.091-.186.45-.218Zm-36.74-75.825-.45.218-.091-.187.068-.195.473.164Zm20.296-58.456.45-.218.091.187-.068.195-.473-.164Zm-53.368-110.141a2.666 2.666 0 1 1-2.325-4.799 2.666 2.666 0 1 1 2.325 4.799ZM529.337 577.85l-62.91-129.834.9-.436 62.91 129.834-.9.436Zm-62.624-129.58-58.456-20.297.328-.944 58.456 20.296-.328.945Zm-58.742-20.551-36.74-75.825.9-.436 36.74 75.825-.9.436Zm-36.763-76.207 20.297-58.456.945.328-20.297 58.456-.945-.328Zm20.319-58.074-54.53-112.541.899-.436 54.531 112.541-.9.436Z"/><path fill="#BA8C4E" fill-opacity=".51" d="m528.339 630.24-.472-.164-.068.195.09.187.45-.218Zm20.297-58.456.472.164.068-.195-.09-.187-.45.218Zm-36.741-75.825.45-.218-.09-.186-.196-.068-.164.472Zm-58.455-20.297-.45.218.09.187.196.068.164-.473Zm-53.368-110.141a2.667 2.667 0 1 0-2.326-4.8 2.667 2.667 0 0 0 2.326 4.8ZM591.7 759.856l-62.911-129.834-.9.436L590.8 760.292l.9-.436Zm-62.888-129.452 20.296-58.456-.944-.328-20.297 58.456.945.328Zm20.274-58.838-36.741-75.825-.9.436 36.741 75.825.9-.436Zm-37.027-76.079-58.455-20.297-.328.945 58.455 20.296.328-.944Zm-58.169-20.043-54.531-112.541-.9.437 54.531 112.54.9-.436Z"/><path fill="#BA8C4E" fill-opacity=".51" d="m455.552 509.853-.496-.066-.02.149.066.135.45-.218Zm10.373-78.936.496.066.019-.149-.065-.135-.45.218Zm-55.85-115.262.45-.218-.065-.135-.129-.077-.256.43Zm-68.378-40.777-.45.218.065.135.128.077.257-.43Zm-81.73-168.674a2.667 2.667 0 1 0-2.327-4.8 2.667 2.667 0 0 0 2.327 4.8Zm291.665 600.793-95.63-197.362-.9.436 95.63 197.362.9-.436Zm-95.585-197.079 10.374-78.935-.992-.131-10.373 78.935.991.131Zm10.328-79.219-55.85-115.262-.9.436 55.85 115.263.9-.437Zm-56.044-115.474-68.378-40.776-.513.859 68.379 40.776.512-.859Zm-68.184-40.565-82.893-171.074-.9.436 82.893 171.074.9-.436ZM413.058 473.875l-.472-.164-.068.196.09.186.45-.218Zm20.297-58.455.472.164.068-.196-.09-.186-.45.218Zm-36.741-75.825.45-.219-.09-.186-.196-.068-.164.473Zm-58.455-20.297-.45.218.09.186.196.068.164-.472Zm-53.368-110.141a2.667 2.667 0 1 0-2.327-4.8 2.667 2.667 0 0 0 2.327 4.8Zm191.627 394.335-62.91-129.835-.9.436 62.911 129.835.899-.436Zm-62.887-129.453 20.296-58.455-.945-.328-20.296 58.455.945.328Zm20.274-58.837-36.741-75.826-.9.437 36.741 75.825.9-.436Zm-37.027-76.08-58.455-20.296-.328.944 58.455 20.297.328-.945Zm-58.169-20.042-54.531-112.541-.9.436 54.531 112.541.9-.436Z"/><path fill="#BA8C4E" fill-opacity=".51" d="m518.153 635.176.164-.473.196.068.09.187-.45.218Zm-58.455-20.297-.164.472-.196-.068-.09-.186.45-.218Zm-36.741-75.825-.45.218-.09-.187.068-.195.472.164Zm20.297-58.456.45-.218.09.187-.068.195-.472-.164Zm-53.368-110.141a2.668 2.668 0 0 1-2.326-4.8 2.667 2.667 0 0 1 2.326 4.8Zm190.728 394.771-62.911-129.834.9-.436 62.911 129.834-.9.436Zm-62.625-129.58-58.455-20.297.328-.944 58.455 20.296-.328.945Zm-58.741-20.551-36.741-75.825.9-.436 36.741 75.825-.9.436Zm-36.763-76.207 20.297-58.456.944.328-20.296 58.456-.945-.328Zm20.319-58.074-54.531-112.541.9-.436 54.531 112.541-.9.436Z"/><path fill="#BA8C4E" fill-opacity=".51" d="m468.778 503.443.257-.429.128.077.065.134-.45.218ZM400.4 462.667l-.256.429-.129-.076-.065-.135.45-.218Zm-55.85-115.263-.45.218-.065-.134.019-.149.496.065Zm10.373-78.935.45-.218.066.135-.02.148-.496-.065Zm-81.73-168.674a2.666 2.666 0 1 1-2.325-4.798 2.666 2.666 0 0 1 2.325 4.798Zm290.766 601.229-95.63-197.363.899-.436 95.631 197.363-.9.436Zm-95.437-197.151-68.378-40.777.512-.858 68.379 40.776-.513.859Zm-68.572-40.988L344.1 347.622l.9-.436 55.85 115.263-.9.436Zm-55.896-115.546 10.374-78.935.991.13-10.373 78.935-.992-.13Zm10.419-78.652L271.581 97.613l.9-.436 82.892 171.074-.9.436Z"/><path fill="#BA8C4E" d="m691.639 605.712.656-1.889.782.272.361.745-1.799.872Zm-41.351-14.357-.656 1.889-.782-.272-.361-.745 1.799-.872Zm-25.989-53.637-1.8.872-.361-.746.272-.782 1.889.656Zm14.357-41.35 1.8-.873.361.746-.271.783-1.89-.656Zm-33.922-70.01c-5.302 2.569-11.682.353-14.251-4.948-2.569-5.302-.353-11.682 4.948-14.251 5.302-2.568 11.682-.353 14.251 4.948 2.568 5.302.353 11.682-4.948 14.251ZM734.34 698.426l-44.501-91.842 3.599-1.744 44.502 91.842-3.6 1.744Zm-43.358-90.824-41.35-14.358 1.312-3.779 41.351 14.358-1.313 3.779Zm-42.493-15.375-25.99-53.637 3.6-1.745 25.989 53.638-3.599 1.744Zm-26.079-55.165 14.357-41.35 3.779 1.312-14.358 41.35-3.778-1.312Zm14.446-39.822-38.573-79.609 3.599-1.745 38.574 79.609-3.6 1.745Z"/><path fill="#BA8C4E" d="m735.116 734.768-1.89-.656-.272.782.362.746 1.8-.872Zm14.357-41.35 1.889.656.272-.783-.361-.745-1.8.872Zm-25.99-53.637 1.8-.873-.361-.745-.783-.272-.656 1.89Zm-41.35-14.358-1.799.872.361.746.782.272.656-1.89Zm-33.922-70.01c5.301-2.568 7.516-8.948 4.948-14.25-2.569-5.301-8.949-7.517-14.251-4.948-5.301 2.569-7.517 8.949-4.948 14.25 2.569 5.302 8.949 7.517 14.251 4.948Zm133.206 270.325-44.502-91.842-3.599 1.744 44.501 91.842 3.6-1.744Zm-44.412-90.314 14.357-41.35-3.778-1.312-14.358 41.35 3.779 1.312Zm14.268-42.878-25.99-53.638-3.599 1.745 25.989 53.637 3.6-1.744Zm-27.134-54.655-41.35-14.357-1.312 3.779 41.35 14.357 1.312-3.779Zm-40.206-13.34-38.574-79.609-3.599 1.744 38.574 79.609 3.599-1.744Z"/><path fill="#BA8C4E" d="m683.628 649.608-1.983-.261-.078.594.261.539 1.8-.872Zm7.337-55.837 1.983.261.078-.594-.261-.539-1.8.872Zm-39.506-81.534 1.799-.872-.261-.539-.514-.307-1.024 1.718Zm-48.37-28.845-1.8.873.261.538.515.307 1.024-1.718Zm-53.985-111.415c5.301-2.568 7.516-8.948 4.948-14.25-2.569-5.301-8.949-7.517-14.251-4.948-5.301 2.569-7.517 8.949-4.948 14.251 2.569 5.301 8.949 7.516 14.251 4.947Zm203.97 416.369-67.647-139.61-3.599 1.744 67.647 139.61 3.599-1.744ZM685.61 649.869l7.338-55.837-3.966-.521-7.337 55.836 3.965.522Zm7.155-56.97-39.507-81.534-3.599 1.744 39.507 81.534 3.599-1.744Zm-40.282-82.38-48.37-28.844-2.048 3.435 48.369 28.845 2.049-3.436Zm-47.594-27.999-58.637-121.014-3.599 1.744 58.636 121.015 3.6-1.745Z"/><path fill="#BA8C4E" fill-opacity=".51" d="m580.873 430.458-.472-.164-.068.195.09.187.45-.218Zm20.297-58.456.472.164.068-.195-.09-.187-.45.218Zm-36.741-75.825.45-.218-.09-.187-.196-.068-.164.473Zm-58.455-20.297-.45.218.09.187.196.067.164-.472Zm-53.368-110.141a2.667 2.667 0 1 0-2.327-4.8 2.667 2.667 0 0 0 2.327 4.8Zm191.628 394.335L581.323 430.24l-.9.436 62.911 129.834.9-.436Zm-62.888-129.452 20.296-58.456-.944-.328-20.297 58.456.945.328Zm20.274-58.838-36.741-75.825-.9.436 36.741 75.825.9-.436Zm-37.027-76.08-58.455-20.296-.328.944 58.455 20.297.328-.945Zm-58.169-20.042-54.531-112.541-.9.436 54.531 112.541.9-.436Z"/><path fill="#BA8C4E" fill-opacity=".51" d="m685.969 591.758.164-.473.195.068.091.187-.45.218Zm-58.456-20.297-.164.472-.195-.068-.091-.186.45-.218Zm-36.74-75.825-.45.218-.091-.187.068-.195.473.164Zm20.296-58.456.45-.218.09.187-.067.195-.473-.164Zm-53.368-110.141a2.667 2.667 0 1 1-2.326-4.799 2.667 2.667 0 0 1 2.326 4.799ZM748.429 721.81l-62.91-129.834.9-.436 62.91 129.834-.9.436Zm-62.624-129.58-58.456-20.297.328-.944 58.456 20.296-.328.945Zm-58.742-20.551-36.74-75.825.899-.436 36.741 75.825-.9.436ZM590.3 495.472l20.297-58.456.945.328-20.297 58.456-.945-.328Zm20.319-58.074-54.531-112.541.9-.436 54.531 112.541-.9.436Z"/><path fill="#BA8C4E" fill-opacity=".51" d="m636.593 460.025.257-.429.128.077.065.134-.45.218Zm-68.378-40.776-.256.43-.129-.077-.065-.135.45-.218Zm-55.85-115.263-.45.218-.065-.134.019-.149.496.065Zm10.373-78.935.45-.218.066.135-.02.148-.496-.065Zm-81.73-168.674a2.666 2.666 0 1 1-2.325-4.799 2.666 2.666 0 0 1 2.325 4.799Zm290.766 601.229-95.631-197.363.9-.436 95.631 197.363-.9.436Zm-95.437-197.151-68.378-40.776.512-.859 68.379 40.776-.513.859Zm-68.572-40.988-55.85-115.263.9-.436 55.85 115.263-.9.436Zm-55.896-115.546 10.374-78.935.991.13-10.373 78.935-.992-.13Zm10.419-78.652L439.396 54.195l.899-.436 82.893 171.074-.9.436ZM570.687 435.393l.164-.472.196.068.09.186-.45.218Zm-58.455-20.296-.164.472-.196-.068-.09-.186.45-.218Zm-36.741-75.826-.45.218-.09-.186.068-.196.472.164Zm20.297-58.455.45-.218.09.186-.068.196-.472-.164ZM442.42 170.675a2.667 2.667 0 1 1-2.326-4.801 2.667 2.667 0 0 1 2.326 4.801Zm190.727 394.771-62.91-129.835.9-.436 62.91 129.835-.9.436Zm-62.624-129.58-58.455-20.297.328-.945 58.455 20.297-.328.945Zm-58.741-20.551-36.741-75.826.9-.436 36.741 75.826-.9.436Zm-36.763-76.208 20.296-58.455.945.328-20.297 58.455-.944-.328Zm20.319-58.073-54.531-112.541.9-.436 54.531 112.541-.9.436Z"/><path fill="#BA8C4E" fill-opacity=".51" d="m632.149 617.835-.472-.164-.068.195.091.187.449-.218Zm20.297-58.456.472.164.068-.195-.09-.187-.45.218Zm-36.741-75.825.45-.218-.09-.187-.196-.068-.164.473Zm-58.455-20.297-.45.218.09.186.196.068.164-.472Zm-53.368-110.141a2.667 2.667 0 1 0-2.327-4.8 2.667 2.667 0 0 0 2.327 4.8ZM695.51 747.451l-62.911-129.834-.899.436 62.91 129.834.9-.436Zm-62.888-129.452 20.296-58.456-.944-.328-20.297 58.456.945.328Zm20.274-58.838-36.741-75.825-.9.436 36.741 75.825.9-.436Zm-37.027-76.08-58.455-20.296-.328.944 58.455 20.297.328-.945ZM557.7 463.039l-54.531-112.541-.9.436L556.8 463.475l.9-.436Z"/><path fill="#BA8C4E" fill-opacity=".51" d="m559.362 497.447-.496-.065-.02.149.066.134.45-.218Zm10.373-78.935.496.065.019-.148-.065-.135-.45.218Zm-55.85-115.263.45-.218-.065-.134-.129-.077-.256.429Zm-68.378-40.776-.45.218.065.135.129.076.256-.429Zm-81.73-168.674a2.667 2.667 0 1 0-2.327-4.8 2.667 2.667 0 0 0 2.327 4.8Zm291.665 600.793-95.63-197.363-.9.436 95.63 197.363.9-.436Zm-95.585-197.08 10.374-78.935-.992-.13-10.373 78.935.991.13Zm10.328-79.218-55.85-115.263-.9.436 55.85 115.263.9-.436ZM514.141 302.82l-68.378-40.776-.512.858 68.378 40.777.512-.859Zm-68.184-40.565L363.064 91.181l-.9.436 82.893 171.074.9-.436ZM516.868 461.471l-.472-.164-.068.195.091.187.449-.218Zm20.297-58.456.472.164.068-.195-.09-.187-.45.218Zm-36.741-75.825.45-.218-.09-.187-.196-.068-.164.473Zm-58.455-20.297-.45.218.09.186.196.068.164-.472Zm-53.368-110.141a2.667 2.667 0 1 0-2.327-4.8 2.667 2.667 0 0 0 2.327 4.8Zm191.628 394.335-62.911-129.835-.899.437 62.91 129.834.9-.436Zm-62.888-129.452 20.296-58.456-.944-.328-20.297 58.456.945.328Zm20.274-58.838-36.741-75.825-.9.436 36.741 75.825.9-.436Zm-37.027-76.08-58.455-20.296-.328.944 58.455 20.297.328-.945Zm-58.169-20.042-54.531-112.541-.9.436 54.531 112.541.9-.436Z"/><path fill="#BA8C4E" fill-opacity=".51" d="m621.964 622.771.164-.472.195.068.091.186-.45.218Zm-58.456-20.297-.164.473-.195-.068-.091-.187.45-.218Zm-36.74-75.825-.45.218-.091-.186.068-.196.473.164Zm20.296-58.455.45-.218.091.186-.068.196-.473-.164Zm-53.368-110.141a2.667 2.667 0 1 1-2.325-4.8 2.667 2.667 0 0 1 2.325 4.8Zm190.728 394.77-62.91-129.834.9-.436 62.91 129.834-.9.436ZM621.8 623.243l-58.456-20.296.328-.945 58.456 20.297-.328.944Zm-58.742-20.551-36.74-75.825.9-.436 36.74 75.825-.9.436Zm-36.763-76.207 20.297-58.455.945.328-20.297 58.455-.945-.328Zm20.319-58.073-54.531-112.541.9-.436 54.531 112.541-.9.436Z"/><path fill="#BA8C4E" fill-opacity=".51" d="m572.589 491.039.256-.43.129.077.065.135-.45.218Zm-68.379-40.777-.256.43-.128-.077-.066-.134.45-.219ZM448.361 335l-.45.218-.066-.135.02-.148.496.065Zm10.373-78.935.45-.218.065.134-.019.149-.496-.065ZM377.004 87.39a2.668 2.668 0 1 1-2.325-4.802 2.668 2.668 0 0 1 2.325 4.802ZM667.77 688.62l-95.631-197.362.9-.436 95.63 197.362-.899.436Zm-95.437-197.151-68.379-40.776.512-.859 68.379 40.776-.512.859Zm-68.573-40.987-55.849-115.263.9-.436 55.849 115.262-.9.437Zm-55.895-115.546 10.373-78.936.992.131-10.374 78.935-.991-.13Zm10.419-78.652L375.391 85.208l.9-.436 82.893 171.075-.9.436Z"/></g></g><defs><filter id="a" width="1560.12" height="1093" x=".23" y="0" color-interpolation-filters="sRGB" filterUnits="userSpaceOnUse"><feFlood flood-opacity="0" result="BackgroundImageFix"/><feColorMatrix in="SourceAlpha" result="hardAlpha" values="0 0 0 0 0 0 0 0 0 0 0 0 0 0 0 0 0 0 127 0"/><feOffset dy="31"/><feGaussianBlur stdDeviation="12.5"/><feComposite in2="hardAlpha" operator="out"/><feColorMatrix values="0 0 0 0 0 0 0 0 0 0 0 0 0 0 0 0 0 0 0.25 0"/><feBlend in2="BackgroundImageFix" result="effect1_dropShadow_79_1046"/><feBlend in="SourceGraphic" in2="effect1_dropShadow_79_1046" result="shape"/></filter><filter id="b" width="1518.12" height="1045" x="21.23" y="0" color-interpolation-filters="sRGB" filterUnits="userSpaceOnUse"><feFlood flood-opacity="0" result="BackgroundImageFix"/><feColorMatrix in="SourceAlpha" result="hardAlpha" values="0 0 0 0 0 0 0 0 0 0 0 0 0 0 0 0 0 0 127 0"/><feOffset dy="4"/><feGaussianBlur stdDeviation="2"/><feComposite in2="hardAlpha" operator="out"/><feColorMatrix values="0 0 0 0 0 0 0 0 0 0 0 0 0 0 0 0 0 0 0.25 0"/><feBlend in2="BackgroundImageFix" result="effect1_dropShadow_79_1046"/><feBlend in="SourceGraphic" in2="effect1_dropShadow_79_1046" result="shape"/></filter><filter id="c" width="1054.71" height="942.562" x="252.136" y="51.31" color-interpolation-filters="sRGB" filterUnits="userSpaceOnUse"><feFlood flood-opacity="0" result="BackgroundImageFix"/><feColorMatrix in="SourceAlpha" result="hardAlpha" values="0 0 0 0 0 0 0 0 0 0 0 0 0 0 0 0 0 0 127 0"/><feOffset dy="4"/><feGaussianBlur stdDeviation="2"/><feComposite in2="hardAlpha" operator="out"/><feColorMatrix values="0 0 0 0 0 0 0 0 0 0 0 0 0 0 0 0 0 0 0.25 0"/><feBlend in2="BackgroundImageFix" result="effect1_dropShadow_79_1046"/><feBlend in="SourceGraphic" in2="effect1_dropShadow_79_1046" result="shape"/></filter></defs></svg>
