<svg width="339" height="194" viewBox="0 0 339 194" fill="none" xmlns="http://www.w3.org/2000/svg">
<path d="M107.087 193L1.68971 1H337.327L234.137 193H107.087Z" fill="#323649" stroke="#BA8C4E" stroke-width="2"/>
<line x1="188.166" y1="41.0963" x2="188.166" y2="138.232" stroke="#BA8C4E" stroke-width="2"/>
<line x1="152.997" y1="41.0963" x2="152.997" y2="138.232" stroke="#BA8C4E" stroke-width="2"/>
<line x1="170.581" y1="30.2108" x2="170.581" y2="149.114" stroke="#BA8C4E" stroke-width="2"/>
<line x1="137.762" y1="119.645" x2="203.075" y2="119.645" stroke="#BA8C4E" stroke-width="2"/>
<line x1="146.973" y1="57.6808" x2="193.864" y2="57.6808" stroke="#BA8C4E" stroke-width="2"/>
<line x1="123.527" y1="86.988" x2="215.636" y2="86.988" stroke="#BA8C4E" stroke-width="2"/>
<line x1="215.798" y1="79.6145" x2="215.798" y2="87.988" stroke="#BA8C4E" stroke-width="2"/>
<line x1="214.798" y1="78.6145" x2="228.196" y2="78.6145" stroke="#BA8C4E" stroke-width="2"/>
<circle cx="229.033" cy="78.7771" r="2.51205" fill="#BA8C4E"/>
<circle cx="170.419" cy="31.8855" r="2.51205" fill="#BA8C4E"/>
<circle cx="128.551" cy="41.0963" r="2.51205" fill="#BA8C4E"/>
<circle cx="138.599" cy="31.8855" r="2.51205" fill="#BA8C4E"/>
<circle cx="202.238" cy="31.8855" r="2.51205" fill="#BA8C4E"/>
<circle cx="177.117" cy="62.8675" r="2.51205" fill="#BA8C4E"/>
<circle cx="163.72" cy="62.8675" r="2.51205" fill="#BA8C4E"/>
<circle cx="157.858" cy="72.0783" r="2.51205" fill="#BA8C4E"/>
<circle cx="182.979" cy="72.0783" r="2.51205" fill="#BA8C4E"/>
<circle cx="159.533" cy="77.1024" r="2.51205" fill="#BA8C4E"/>
<circle cx="180.467" cy="77.1024" r="2.51205" fill="#BA8C4E"/>
<circle cx="180.467" cy="98.0362" r="2.51205" fill="#BA8C4E"/>
<circle cx="159.533" cy="98.0362" r="2.51205" fill="#BA8C4E"/>
<circle cx="157.858" cy="107.247" r="2.51205" fill="#BA8C4E"/>
<circle cx="182.979" cy="107.247" r="2.51205" fill="#BA8C4E"/>
<circle cx="163.72" cy="114.783" r="2.51205" fill="#BA8C4E"/>
<circle cx="177.117" cy="114.783" r="2.51205" fill="#BA8C4E"/>
<line x1="124.202" y1="94.6868" x2="124.202" y2="86.3133" stroke="#BA8C4E" stroke-width="2"/>
<line x1="125.202" y1="94.8494" x2="111.804" y2="94.8494" stroke="#BA8C4E" stroke-width="2"/>
<circle cx="110.967" cy="94.6868" r="2.51205" transform="rotate(-180 110.967 94.6868)" fill="#BA8C4E"/>
<circle cx="193.027" cy="100.548" r="2.51205" transform="rotate(-180 193.027 100.548)" fill="#BA8C4E"/>
<circle cx="147.81" cy="100.548" r="2.51205" transform="rotate(-180 147.81 100.548)" fill="#BA8C4E"/>
<line x1="129.389" y1="40.9338" x2="153.672" y2="40.9338" stroke="#BA8C4E" stroke-width="2"/>
<circle r="2.51205" transform="matrix(-1 0 0 1 212.286 40.2591)" fill="#BA8C4E"/>
<line y1="-1" x2="24.2831" y2="-1" transform="matrix(-1 8.74228e-08 8.74228e-08 1 211.449 41.0963)" stroke="#BA8C4E" stroke-width="2"/>
<line x1="188.84" y1="137.229" x2="196.376" y2="137.229" stroke="#BA8C4E" stroke-width="2"/>
<circle r="2.51205" transform="matrix(-1 0 0 1 144.461 137.392)" fill="#BA8C4E"/>
<circle r="2.51205" transform="matrix(-1 0 0 1 196.377 137.392)" fill="#BA8C4E"/>
<circle r="2.51205" transform="matrix(-1 0 0 1 170.419 149.114)" fill="#BA8C4E"/>
<line y1="-1" x2="7.53614" y2="-1" transform="matrix(-1 0 0 1 152.834 138.229)" stroke="#BA8C4E" stroke-width="2"/>
<line x1="147.973" y1="58.6808" x2="147.973" y2="99.7109" stroke="#BA8C4E" stroke-width="2"/>
<line x1="193.19" y1="58.6808" x2="193.19" y2="99.7109" stroke="#BA8C4E" stroke-width="2"/>
<line x1="202.075" y1="120.645" x2="202.075" y2="31.0482" stroke="#BA8C4E" stroke-width="2"/>
<line x1="138.437" y1="120.645" x2="138.437" y2="31.8856" stroke="#BA8C4E" stroke-width="2"/>
<line x1="164.557" y1="62.7048" x2="176.28" y2="62.7048" stroke="#BA8C4E" stroke-width="2"/>
<line x1="158.696" y1="71.9157" x2="182.142" y2="71.9157" stroke="#BA8C4E" stroke-width="2"/>
<line x1="158.696" y1="71.9157" x2="182.142" y2="71.9157" stroke="#BA8C4E" stroke-width="2"/>
<line x1="158.696" y1="107.084" x2="182.142" y2="107.084" stroke="#BA8C4E" stroke-width="2"/>
<line x1="164.557" y1="114.62" x2="176.28" y2="114.62" stroke="#BA8C4E" stroke-width="2"/>
<line x1="159.403" y1="76.3953" x2="182.011" y2="99.0037" stroke="#BA8C4E" stroke-width="2"/>
<line y1="-1" x2="31.9732" y2="-1" transform="matrix(-0.707107 0.707107 0.707107 0.707107 181.304 77.1024)" stroke="#BA8C4E" stroke-width="2"/>
<rect x="105.605" y="26.5241" width="128.789" height="127.952" stroke="#BA8C4E"/>
<rect x="103.093" y="24.012" width="133.813" height="132.976" stroke="#BA8C4E"/>
<rect x="100.581" y="21.5" width="138.837" height="138" stroke="#BA8C4E"/>
</svg>
