<svg xmlns="http://www.w3.org/2000/svg" fill="none" viewBox="21 63 221 218"><path fill="#BA8C4E" d="M23.915 70.844a33.191 33.191 0 0 0 46.028-47.83l-.723.75a32.147 32.147 0 1 1-44.582 46.33l-.723.75Z"/><path stroke="#BA8C4E" stroke-width="2" d="M25.087 23.184H218.09"/><circle r="3.328" fill="#BA8C4E" transform="matrix(-1 0 0 1 216.981 23.294)"/><path stroke="#BA8C4E" stroke-width="2" d="M24.087 22.184v193.003"/><circle r="3.328" fill="#BA8C4E" transform="matrix(0 -1 -1 0 23.978 214.078)"/><circle r="3.328" fill="#BA8C4E" transform="matrix(-1 0 0 1 97.186 96.501)"/><path stroke="#BA8C4E" stroke-width="2" d="M35.18 27.621h-6.875v88.955h6.874z"/><path stroke="#BA8C4E" stroke-width="2" d="M117.261 34.495V27.62H28.306v6.874zM24.38 22.891 97.588 96.1"/></svg>
