<svg width="221" height="218" viewBox="0 0 221 218" fill="none" xmlns="http://www.w3.org/2000/svg">
<path d="M23.9153 70.8445C27.056 73.8667 30.7611 76.2407 34.8192 77.831C38.8773 79.4213 43.2089 80.1967 47.5666 80.113C51.9244 80.0293 56.223 79.0881 60.217 77.3431C64.2111 75.5981 67.8223 73.0835 70.8445 69.9429C73.8667 66.8023 76.2407 63.0971 77.831 59.039C79.4213 54.9809 80.1967 50.6493 80.113 46.2916C80.0293 41.9338 79.088 37.6352 77.343 33.6412C75.598 29.6472 73.0834 26.0359 69.9428 23.0137L69.2202 23.7647C72.2622 26.692 74.6978 30.1898 76.388 34.0584C78.0782 37.927 78.9899 42.0907 79.071 46.3116C79.1521 50.5325 78.401 54.7281 76.8607 58.6588C75.3203 62.5894 73.0208 66.1782 70.0935 69.2202C67.1662 72.2622 63.6684 74.6978 59.7998 76.3881C55.9312 78.0783 51.7676 78.9899 47.5466 79.071C43.3257 79.1521 39.1301 78.401 35.1994 76.8607C31.2688 75.3203 27.68 73.0208 24.638 70.0935L23.9153 70.8445Z" fill="#BA8C4E"/>
<line y1="-1" x2="193.003" y2="-1" transform="matrix(1 -4.72284e-08 -4.72284e-08 -1 25.087 22.1842)" stroke="#BA8C4E" stroke-width="2"/>
<circle r="3.32764" transform="matrix(-1 0 0 1 216.981 23.2935)" fill="#BA8C4E"/>
<line y1="-1" x2="193.003" y2="-1" transform="matrix(5.91533e-08 1 1 -5.91533e-08 25.0871 22.1843)" stroke="#BA8C4E" stroke-width="2"/>
<circle r="3.32764" transform="matrix(-1.19249e-08 -1 -1 1.19249e-08 23.9779 214.078)" fill="#BA8C4E"/>
<circle r="3.32764" transform="matrix(-1 0 0 1 97.186 96.5015)" fill="#BA8C4E"/>
<rect x="-1" y="1" width="6.8737" height="88.9554" transform="matrix(-1 0 0 1 34.1792 26.6211)" stroke="#BA8C4E" stroke-width="2"/>
<rect x="-1" y="-1" width="6.8737" height="88.9554" transform="matrix(-1.19249e-08 -1 -1 1.19249e-08 116.261 33.4948)" stroke="#BA8C4E" stroke-width="2"/>
<line y1="-1" x2="103.532" y2="-1" transform="matrix(0.707107 0.707107 0.707107 -0.707107 25.087 22.1842)" stroke="#BA8C4E" stroke-width="2"/>
</svg>
