<svg width="647" height="646" viewBox="0 0 647 646" fill="none" xmlns="http://www.w3.org/2000/svg">
<path d="M392.201 102L391.176 103.796L391.652 104.068L392.201 104.068L392.201 102ZM336.155 70L337.181 68.2043L336.704 67.9323L336.155 67.9323L336.155 70ZM228.23 70L228.23 67.9322L227.681 67.9322L227.205 68.2043L228.23 70ZM172.184 102L172.184 104.068L172.733 104.068L173.21 103.796L172.184 102ZM23.0281 102C23.0281 95.9093 18.0906 90.9719 12 90.9719C5.90933 90.9719 0.97188 95.9093 0.97188 102C0.971879 108.091 5.90932 113.028 12 113.028C18.0906 113.028 23.0281 108.091 23.0281 102ZM577 99.9322L392.201 99.9322L392.201 104.068L577 104.068L577 99.9322ZM393.226 100.204L337.181 68.2043L335.13 71.7957L391.176 103.796L393.226 100.204ZM336.155 67.9323L228.23 67.9322L228.23 72.0678L336.155 72.0678L336.155 67.9323ZM227.205 68.2043L171.159 100.204L173.21 103.796L229.255 71.7957L227.205 68.2043ZM172.184 99.9322L12 99.9322L12 104.068L172.184 104.068L172.184 99.9322Z" fill="#BA8C4E"/>
<path d="M485.987 86L484.85 84.2725L485.367 83.9322L485.987 83.9322L485.987 86ZM437.343 118L438.48 119.728L437.962 120.068L437.343 120.068L437.343 118ZM343.672 118L343.672 120.068L343.053 120.068L342.535 119.728L343.672 118ZM295.028 86L295.028 83.9323L295.647 83.9323L296.165 84.2725L295.028 86ZM167.028 86C167.028 92.0907 162.091 97.0281 156 97.0281C149.909 97.0281 144.972 92.0907 144.972 86C144.972 79.9094 149.909 74.972 156 74.972C162.091 74.972 167.028 79.9094 167.028 86ZM646.378 88.0678L485.987 88.0678L485.987 83.9322L646.378 83.9322L646.378 88.0678ZM487.123 87.7275L438.48 119.728L436.207 116.273L484.85 84.2725L487.123 87.7275ZM437.343 120.068L343.672 120.068L343.672 115.932L437.343 115.932L437.343 120.068ZM342.535 119.728L293.892 87.7275L296.165 84.2725L344.808 116.273L342.535 119.728ZM295.028 88.0678L156 88.0678L156 83.9323L295.028 83.9323L295.028 88.0678Z" fill="#BA8C4E"/>
<path d="M416.987 70L415.85 68.2725L416.367 67.9322L416.987 67.9322L416.987 70ZM368.343 102L369.48 103.728L368.962 104.068L368.343 104.068L368.343 102ZM274.672 102L274.672 104.068L274.053 104.068L273.535 103.728L274.672 102ZM226.028 70L226.028 67.9323L226.647 67.9323L227.165 68.2725L226.028 70ZM98.0281 70C98.0282 76.0907 93.0907 81.0281 87.0001 81.0281C80.9094 81.0281 75.972 76.0907 75.972 70C75.972 63.9094 80.9094 58.972 87.0001 58.972C93.0907 58.972 98.0281 63.9094 98.0281 70ZM577.378 72.0678L416.987 72.0678L416.987 67.9322L577.378 67.9322L577.378 72.0678ZM418.123 71.7275L369.48 103.728L367.207 100.273L415.85 68.2725L418.123 71.7275ZM368.343 104.068L274.672 104.068L274.672 99.9323L368.343 99.9323L368.343 104.068ZM273.535 103.728L224.892 71.7275L227.165 68.2725L275.808 100.273L273.535 103.728ZM226.028 72.0678L87.0001 72.0678L87.0001 67.9323L226.028 67.9323L226.028 72.0678Z" fill="#BA8C4E"/>
<path d="M392.201 124L391.176 122.204L391.652 121.932L392.201 121.932L392.201 124ZM336.155 156L337.181 157.796L336.704 158.068L336.155 158.068L336.155 156ZM228.23 156L228.23 158.068L227.681 158.068L227.205 157.796L228.23 156ZM172.184 124L172.184 121.932L172.733 121.932L173.21 122.204L172.184 124ZM23.0281 124C23.0281 130.091 18.0906 135.028 12 135.028C5.90933 135.028 0.97188 130.091 0.97188 124C0.971879 117.909 5.90932 112.972 12 112.972C18.0906 112.972 23.0281 117.909 23.0281 124ZM577 126.068L392.201 126.068L392.201 121.932L577 121.932L577 126.068ZM393.226 125.796L337.181 157.796L335.13 154.204L391.176 122.204L393.226 125.796ZM336.155 158.068L228.23 158.068L228.23 153.932L336.155 153.932L336.155 158.068ZM227.205 157.796L171.159 125.796L173.21 122.204L229.255 154.204L227.205 157.796ZM172.184 126.068L12 126.068L12 121.932L172.184 121.932L172.184 126.068Z" fill="#BA8C4E"/>
<path d="M485.987 140L484.85 141.727L485.367 142.068L485.987 142.068L485.987 140ZM437.343 108L438.48 106.272L437.962 105.932L437.343 105.932L437.343 108ZM343.672 108L343.672 105.932L343.053 105.932L342.535 106.272L343.672 108ZM295.028 140L295.028 142.068L295.647 142.068L296.165 141.727L295.028 140ZM167.028 140C167.028 133.909 162.091 128.972 156 128.972C149.909 128.972 144.972 133.909 144.972 140C144.972 146.091 149.909 151.028 156 151.028C162.091 151.028 167.028 146.091 167.028 140ZM646.378 137.932L485.987 137.932L485.987 142.068L646.378 142.068L646.378 137.932ZM487.123 138.273L438.48 106.272L436.207 109.727L484.85 141.727L487.123 138.273ZM437.343 105.932L343.672 105.932L343.672 110.068L437.343 110.068L437.343 105.932ZM342.535 106.272L293.892 138.272L296.165 141.727L344.808 109.727L342.535 106.272ZM295.028 137.932L156 137.932L156 142.068L295.028 142.068L295.028 137.932Z" fill="#BA8C4E"/>
<path d="M416.987 156L415.85 157.727L416.367 158.068L416.987 158.068L416.987 156ZM368.343 124L369.48 122.272L368.962 121.932L368.343 121.932L368.343 124ZM274.672 124L274.672 121.932L274.053 121.932L273.535 122.272L274.672 124ZM226.028 156L226.028 158.068L226.647 158.068L227.165 157.727L226.028 156ZM98.0281 156C98.0282 149.909 93.0907 144.972 87.0001 144.972C80.9094 144.972 75.972 149.909 75.972 156C75.972 162.091 80.9094 167.028 87.0001 167.028C93.0907 167.028 98.0281 162.091 98.0281 156ZM577.378 153.932L416.987 153.932L416.987 158.068L577.378 158.068L577.378 153.932ZM418.123 154.273L369.48 122.272L367.207 125.727L415.85 157.727L418.123 154.273ZM368.343 121.932L274.672 121.932L274.672 126.068L368.343 126.068L368.343 121.932ZM273.535 122.272L224.892 154.272L227.165 157.727L275.808 125.727L273.535 122.272ZM226.028 153.932L87.0001 153.932L87.0001 158.068L226.028 158.068L226.028 153.932Z" fill="#BA8C4E"/>
<path d="M524 254.177L525.796 255.203L526.068 254.726L526.068 254.177L524 254.177ZM492 310.223L490.204 309.198L489.932 309.674L489.932 310.223L492 310.223ZM492 418.149L489.932 418.149L489.932 418.697L490.204 419.174L492 418.149ZM524 474.194L526.068 474.194L526.068 473.645L525.796 473.169L524 474.194ZM524 623.35C517.909 623.35 512.972 628.288 512.972 634.378C512.972 640.469 517.909 645.407 524 645.407C530.091 645.407 535.028 640.469 535.028 634.378C535.028 628.288 530.091 623.35 524 623.35ZM521.932 69.3784L521.932 254.177L526.068 254.177L526.068 69.3784L521.932 69.3784ZM522.204 253.152L490.204 309.198L493.796 311.248L525.796 255.203L522.204 253.152ZM489.932 310.223L489.932 418.149L494.068 418.149L494.068 310.223L489.932 310.223ZM490.204 419.174L522.204 475.219L525.796 473.169L493.796 417.123L490.204 419.174ZM521.932 474.194L521.932 634.378L526.068 634.378L526.068 474.194L521.932 474.194Z" fill="#BA8C4E"/>
<path d="M508 160.392L506.273 161.528L505.932 161.011L505.932 160.392L508 160.392ZM540 209.035L541.728 207.899L542.068 208.416L542.068 209.035L540 209.035ZM540 302.707L542.068 302.707L542.068 303.326L541.728 303.843L540 302.707ZM508 351.35L505.932 351.35L505.932 350.731L506.273 350.214L508 351.35ZM508 479.35C514.091 479.35 519.028 484.288 519.028 490.378C519.028 496.469 514.091 501.406 508 501.406C501.909 501.406 496.972 496.469 496.972 490.378C496.972 484.288 501.909 479.35 508 479.35ZM510.068 -2.71155e-07L510.068 160.392L505.932 160.392L505.932 2.71155e-07L510.068 -2.71155e-07ZM509.728 159.255L541.728 207.899L538.273 210.172L506.273 161.528L509.728 159.255ZM542.068 209.035L542.068 302.707L537.932 302.707L537.932 209.035L542.068 209.035ZM541.728 303.843L509.728 352.487L506.273 350.214L538.273 301.57L541.728 303.843ZM510.068 351.35L510.068 490.378L505.932 490.378L505.932 351.35L510.068 351.35Z" fill="#BA8C4E"/>
<path d="M492 229.392L490.273 230.528L489.932 230.011L489.932 229.392L492 229.392ZM524 278.035L525.728 276.899L526.068 277.416L526.068 278.035L524 278.035ZM524 371.707L526.068 371.707L526.068 372.326L525.728 372.843L524 371.707ZM492 420.35L489.932 420.35L489.932 419.731L490.273 419.214L492 420.35ZM492 548.35C498.091 548.35 503.028 553.288 503.028 559.378C503.028 565.469 498.091 570.406 492 570.406C485.909 570.406 480.972 565.469 480.972 559.378C480.972 553.288 485.909 548.35 492 548.35ZM494.068 69L494.068 229.392L489.932 229.392L489.932 69L494.068 69ZM493.728 228.255L525.728 276.899L522.273 279.172L490.273 230.528L493.728 228.255ZM526.068 278.035L526.068 371.707L521.932 371.707L521.932 278.035L526.068 278.035ZM525.728 372.843L493.728 421.487L490.273 419.214L522.273 370.57L525.728 372.843ZM494.068 420.35L494.068 559.378L489.932 559.378L489.932 420.35L494.068 420.35Z" fill="#BA8C4E"/>
<path d="M546 254.177L544.204 255.203L543.932 254.726L543.932 254.177L546 254.177ZM578 310.223L579.796 309.198L580.068 309.674L580.068 310.223L578 310.223ZM578 418.149L580.068 418.149L580.068 418.697L579.796 419.174L578 418.149ZM546 474.194L543.932 474.194L543.932 473.645L544.204 473.169L546 474.194ZM546 623.35C552.091 623.35 557.028 628.288 557.028 634.378C557.028 640.469 552.091 645.407 546 645.407C539.909 645.407 534.972 640.469 534.972 634.378C534.972 628.288 539.909 623.35 546 623.35ZM548.068 69.3784L548.068 254.177L543.932 254.177L543.932 69.3784L548.068 69.3784ZM547.796 253.152L579.796 309.198L576.204 311.248L544.204 255.203L547.796 253.152ZM580.068 310.223L580.068 418.149L575.932 418.149L575.932 310.223L580.068 310.223ZM579.796 419.174L547.796 475.219L544.204 473.169L576.204 417.123L579.796 419.174ZM548.068 474.194L548.068 634.378L543.932 634.378L543.932 474.194L548.068 474.194Z" fill="#BA8C4E"/>
<path d="M562 160.392L563.727 161.528L564.068 161.011L564.068 160.392L562 160.392ZM530 209.035L528.273 207.899L527.932 208.416L527.932 209.035L530 209.035ZM530 302.707L527.932 302.707L527.932 303.326L528.273 303.843L530 302.707ZM562 351.35L564.068 351.35L564.068 350.731L563.727 350.214L562 351.35ZM562 479.35C555.909 479.35 550.972 484.288 550.972 490.378C550.972 496.469 555.909 501.406 562 501.406C568.091 501.406 573.028 496.469 573.028 490.378C573.028 484.288 568.091 479.35 562 479.35ZM559.932 -9.0385e-08L559.932 160.392L564.068 160.392L564.068 9.0385e-08L559.932 -9.0385e-08ZM560.273 159.255L528.273 207.899L531.727 210.172L563.727 161.528L560.273 159.255ZM527.932 209.035L527.932 302.707L532.068 302.707L532.068 209.035L527.932 209.035ZM528.273 303.843L560.272 352.487L563.727 350.214L531.727 301.57L528.273 303.843ZM559.932 351.35L559.932 490.378L564.068 490.378L564.068 351.35L559.932 351.35Z" fill="#BA8C4E"/>
<path d="M578 229.392L579.727 230.528L580.068 230.011L580.068 229.392L578 229.392ZM546 278.035L544.273 276.899L543.932 277.416L543.932 278.035L546 278.035ZM546 371.707L543.932 371.707L543.932 372.326L544.273 372.843L546 371.707ZM578 420.35L580.068 420.35L580.068 419.731L579.727 419.214L578 420.35ZM578 548.35C571.909 548.35 566.972 553.288 566.972 559.378C566.972 565.469 571.909 570.406 578 570.406C584.091 570.406 589.028 565.469 589.028 559.378C589.028 553.288 584.091 548.35 578 548.35ZM575.932 69L575.932 229.392L580.068 229.392L580.068 69L575.932 69ZM576.273 228.255L544.273 276.899L547.727 279.172L579.727 230.528L576.273 228.255ZM543.932 278.035L543.932 371.707L548.068 371.707L548.068 278.035L543.932 278.035ZM544.273 372.843L576.272 421.487L579.727 419.214L547.727 370.57L544.273 372.843ZM575.932 420.35L575.932 559.378L580.068 559.378L580.068 420.35L575.932 420.35Z" fill="#BA8C4E"/>
</svg>
